<svg width="375" height="812" viewBox="0 0 375 812" fill="none" xmlns="http://www.w3.org/2000/svg">
  <mask id="mask0_564_3230" style="mask-type:alpha" maskUnits="userSpaceOnUse" x="0" y="0" width="375" height="812">
    <rect width="375" height="812" fill="#D9D9D9"/>
  </mask>
  <g mask="url(#mask0_564_3230)">
    <path d="M394.562 0H-18.5503V893.791H394.562V0Z" fill="#97D5F8"/>
    <g opacity="0.1">
      <path d="M-47.7952 316.523C-47.7663 319.187 -47.7277 321.851 -47.6987 324.515C-47.4767 327.189 -47.2451 329.853 -47.0231 332.526C-45.9999 335.103 -44.9768 337.68 -43.9537 340.267C-43.5579 342.931 -43.1622 345.595 -42.7665 348.269C-42.2066 350.923 -41.6468 353.587 -41.087 356.242C-40.2183 358.848 -39.3399 361.454 -38.4809 364.06C-36.9269 366.473 -35.3729 368.896 -33.8286 371.318C-32.9116 373.915 -32.0043 376.501 -31.097 379.108C-30.2283 381.743 -29.3693 384.378 -28.5102 387.022C-27.0431 389.445 -25.5856 391.868 -24.1281 394.31C-22.8927 396.829 -21.6572 399.358 -20.441 401.896C-18.5395 404.097 -16.6477 406.317 -14.7655 408.537C-13.4721 411.056 -12.1884 413.575 -10.9143 416.104C-9.40858 418.527 -7.92214 420.959 -6.42606 423.401C-4.54388 425.592 -2.67136 427.793 -0.808498 429.994C0.948196 432.262 2.7049 434.54 4.44228 436.828C6.32446 439.009 8.19698 441.2 10.0598 443.401C11.6718 445.823 13.2837 448.256 14.8956 450.698C17.2604 452.454 19.6155 454.211 21.961 455.987C23.7949 458.246 25.6191 460.514 27.4337 462.792C29.5862 464.722 31.7386 466.662 33.8814 468.612C35.9566 470.639 38.0222 472.676 40.0877 474.722C42.105 476.855 44.1223 478.998 46.13 481.141C48.6492 482.55 51.1684 483.978 53.6876 485.397C55.9173 487.241 58.1373 489.094 60.3573 490.947C62.5097 492.964 64.6525 494.982 66.7953 497.018C69.3338 498.302 71.8723 499.595 74.4012 500.889C76.708 502.646 79.0149 504.422 81.3121 506.198C83.7348 507.732 86.1479 509.267 88.5609 510.811C91.0222 512.24 93.4932 513.678 95.9545 515.116C98.5219 516.226 101.089 517.336 103.647 518.446C106.157 519.759 108.657 521.072 111.166 522.394C113.724 523.533 116.272 524.682 118.83 525.83C121.484 526.409 124.139 526.988 126.793 527.577C129.351 528.735 131.909 529.884 134.457 531.052C137.063 531.969 139.659 532.886 142.256 533.803C144.901 534.121 147.555 534.44 150.2 534.758C152.825 535.231 155.45 535.704 158.076 536.177C160.701 536.853 163.336 537.529 165.962 538.204C168.587 538.445 171.222 538.696 173.847 538.938C176.482 539.305 179.127 539.662 181.762 540.028C184.33 539.546 186.897 539.063 189.465 538.581C192.138 539.102 194.812 539.623 197.486 540.144C199.976 539.353 202.476 538.561 204.976 537.77C207.62 537.886 210.265 538.001 212.91 538.117C215.371 537.268 217.823 536.419 220.294 535.569C222.794 534.961 225.303 534.353 227.813 533.745C230.351 533.243 232.89 532.741 235.438 532.239C237.996 531.718 240.554 531.187 243.111 530.666C245.524 529.672 247.957 528.687 250.379 527.693C252.918 526.988 255.456 526.274 258.005 525.569C260.398 524.431 262.802 523.292 265.205 522.153C267.396 520.531 269.587 518.91 271.798 517.278C274.191 516.081 276.595 514.894 279.008 513.697C281.363 512.356 283.718 511.014 286.092 509.672C288.341 508.099 290.61 506.526 292.878 504.952C294.924 503.012 296.99 501.082 299.055 499.142C301.188 497.318 303.331 495.503 305.484 493.669C307.549 491.719 309.615 489.76 311.7 487.801C313.958 486.063 316.227 484.316 318.504 482.569C320.667 480.639 322.829 478.699 325.01 476.758C327.037 474.625 329.083 472.492 331.129 470.349C332.828 467.84 334.527 465.33 336.245 462.811C337.876 460.244 339.517 457.676 341.168 455.099C343.195 452.86 345.231 450.611 347.287 448.352C348.918 445.746 350.55 443.121 352.2 440.505C353.831 437.88 355.472 435.245 357.123 432.609C358.561 429.83 359.999 427.05 361.447 424.26C363.184 421.635 364.931 419.01 366.678 416.365C368.088 413.527 369.506 410.689 370.935 407.832C372.383 404.985 373.831 402.128 375.278 399.261C376.533 396.308 377.788 393.345 379.052 390.381C379.921 387.283 380.79 384.185 381.659 381.077C382.46 377.969 383.261 374.87 384.072 371.753C385.172 368.712 386.272 365.672 387.373 362.622C388.666 359.581 389.969 356.531 391.272 353.471C391.34 350.248 391.417 347.024 391.484 343.8C392.353 340.663 393.212 337.526 394.081 334.379C394.911 331.204 395.741 328.028 396.571 324.853C396.311 321.687 396.04 318.521 395.78 315.355C396.06 312.189 396.349 309.023 396.629 305.848C396.735 302.691 396.851 299.535 396.957 296.388C396.803 293.28 396.639 290.163 396.484 287.055C396.436 283.928 396.397 280.8 396.349 277.673C396.726 274.42 397.092 271.177 397.469 267.924C396.349 265.077 395.239 262.239 394.12 259.401C393.811 256.332 393.502 253.272 393.193 250.203C392.778 247.162 392.353 244.122 391.938 241.082C391.147 238.186 390.345 235.29 389.554 232.395C388.512 229.624 387.469 226.854 386.427 224.084C385.867 221.073 385.297 218.051 384.728 215.04C383.203 212.54 381.678 210.04 380.153 207.54C378.85 204.934 377.547 202.338 376.234 199.732C375.336 196.855 374.439 193.979 373.531 191.103C372.257 188.448 370.983 185.794 369.709 183.14C367.962 180.833 366.215 178.516 364.458 176.209C363.03 173.642 361.601 171.074 360.163 168.507C357.837 166.702 355.501 164.907 353.165 163.102C351.38 160.843 349.584 158.575 347.779 156.307C346.052 153.951 344.324 151.587 342.587 149.232C340.598 147.108 338.61 144.975 336.612 142.851C334.054 141.365 331.496 139.869 328.929 138.373C326.815 136.356 324.701 134.338 322.578 132.321C320.165 130.661 317.752 128.991 315.329 127.331C312.742 125.912 310.146 124.493 307.54 123.065C305.281 121.124 303.003 119.175 300.725 117.235C298.138 115.729 295.552 114.233 292.955 112.737C289.934 112.013 286.913 111.289 283.882 110.565C281.208 109.185 278.525 107.804 275.842 106.424C272.85 105.7 269.848 104.976 266.846 104.262C264.182 102.708 261.499 101.154 258.815 99.6098C255.582 99.5133 252.358 99.4167 249.125 99.3202C246.171 98.4129 243.218 97.5056 240.254 96.5983C237.108 96.3377 233.961 96.0771 230.815 95.8261C227.726 95.3339 224.637 94.8416 221.539 94.3494C218.469 93.5772 215.4 92.8147 212.321 92.0521C209.097 92.2838 205.873 92.5154 202.64 92.7471C199.484 92.1873 196.318 91.6371 193.152 91.0869C189.928 91.222 186.704 91.3572 183.48 91.4923C180.256 91.8012 177.042 92.1101 173.818 92.4286C170.633 93.1718 167.458 93.9053 164.282 94.6389C161.116 95.2856 157.96 95.9323 154.804 96.579C151.551 96.6466 148.298 96.7141 145.045 96.772C141.966 97.8048 138.887 98.8376 135.818 99.8607C132.662 100.488 129.496 101.116 126.339 101.733C123.203 102.476 120.066 103.21 116.929 103.953C113.859 104.909 110.79 105.864 107.73 106.81C104.95 108.432 102.18 110.044 99.4099 111.656C96.3405 112.573 93.2808 113.48 90.2211 114.387C87.2868 115.594 84.3622 116.781 81.4279 117.978C78.8122 119.696 76.1965 121.404 73.5904 123.103C70.5982 124.194 67.606 125.285 64.6139 126.366C61.9595 127.958 59.3052 129.541 56.6508 131.114C53.9868 132.668 51.3132 134.222 48.6492 135.767C46.1589 137.514 43.6687 139.261 41.1784 140.989C38.6785 142.707 36.1786 144.425 33.6787 146.133C31.1498 147.822 28.6209 149.511 26.0921 151.181C23.8335 153.121 21.5845 155.052 19.3356 156.982C17.4437 159.202 15.5616 161.413 13.6698 163.613C11.72 165.746 9.77993 167.86 7.83019 169.984C5.41715 171.769 3.01376 173.555 0.600723 175.331C-1.20423 177.532 -3.00919 179.732 -4.81414 181.933C-6.70597 184.076 -8.58814 186.209 -10.48 188.342C-12.3428 190.495 -14.2057 192.647 -16.0686 194.799C-17.6515 197.097 -19.2441 199.394 -20.8271 201.691C-22.1301 204.114 -23.4235 206.536 -24.7169 208.959C-25.9427 211.392 -27.1686 213.834 -28.3944 216.266C-30.0835 218.524 -31.7823 220.773 -33.4714 223.022C-34.5718 225.503 -35.6818 227.984 -36.7821 230.455C-37.3419 233.09 -37.9114 235.715 -38.4712 238.35C-39.6585 240.792 -40.8457 243.234 -42.0232 245.676C-42.7568 248.243 -43.4904 250.801 -44.2239 253.369C-45.1216 255.907 -46.0192 258.436 -46.9169 260.975C-47.2933 263.61 -47.6698 266.245 -48.0365 268.87C-48.4902 271.486 -48.9342 274.111 -49.3782 276.727C-49.7064 279.362 -50.0345 281.997 -50.3531 284.632C-49.967 287.315 -49.5809 289.999 -49.1948 292.682C-49.8029 295.317 -50.4013 297.942 -50.9998 300.578C-50.855 303.242 -50.7102 305.915 -50.5654 308.579C-49.5905 311.243 -48.6929 313.888 -47.7952 316.523Z" fill="white"/>
    </g>
    <g opacity="0.1">
      <path d="M16.9576 316.369C17.0638 319.081 17.17 321.793 17.2761 324.496C17.614 327.208 17.9518 329.93 18.2896 332.642C18.8591 335.345 19.4286 338.047 19.998 340.76C21.0694 343.366 22.1408 345.982 23.2026 348.597C24.6697 351.078 26.1272 353.568 27.5653 356.068C28.1638 358.819 28.7526 361.579 29.351 364.34C30.9436 366.763 32.5169 369.195 34.0806 371.637C35.4705 374.137 36.8604 376.646 38.231 379.156C39.8043 381.579 41.3679 384.001 42.9219 386.443C44.3794 388.953 45.8272 391.472 47.2558 394.001C49.1572 396.24 51.0587 398.48 52.9409 400.748C55.0451 402.813 57.1396 404.889 59.2244 406.974C60.7495 409.551 62.2649 412.137 63.7706 414.744C66.1933 416.481 68.616 418.238 71.0194 420.014C73.0367 422.156 75.054 424.318 77.0617 426.49C79.1079 428.652 81.1542 430.834 83.1811 433.025C85.6328 434.637 88.0748 436.258 90.5168 437.899C92.6596 440.013 94.7927 442.146 96.9258 444.298C99.5126 445.602 102.099 446.914 104.686 448.246C107.147 449.771 109.609 451.296 112.07 452.841C114.628 454.115 117.176 455.408 119.724 456.702C122.099 458.603 124.483 460.514 126.857 462.445C129.502 463.458 132.147 464.472 134.791 465.485C137.504 466.016 140.216 466.556 142.928 467.097C145.515 468.496 148.102 469.906 150.679 471.325C153.362 472 156.055 472.676 158.738 473.361C161.431 473.892 164.124 474.433 166.817 474.963C169.491 474.906 172.174 474.857 174.857 474.799C177.541 475.05 180.214 475.292 182.898 475.543C185.533 475.301 188.158 475.07 190.793 474.828C193.496 475.06 196.208 475.292 198.911 475.523C201.497 475.012 204.094 474.5 206.69 473.989C209.161 473.004 211.632 472.029 214.113 471.045C216.671 470.417 219.228 469.79 221.796 469.153C224.412 468.622 227.037 468.091 229.672 467.56C232.037 466.267 234.411 464.964 236.805 463.661C239.401 462.85 241.998 462.03 244.614 461.219C246.901 459.665 249.208 458.12 251.525 456.566C253.629 454.665 255.752 452.754 257.885 450.843C260.337 449.482 262.798 448.111 265.269 446.741C267.18 444.501 269.111 442.252 271.061 440.003C273.242 438.111 275.433 436.21 277.643 434.299C279.593 432.069 281.562 429.84 283.55 427.591C285.51 425.332 287.498 423.073 289.487 420.795C291.465 418.498 293.463 416.191 295.48 413.865C297.421 411.452 299.38 409.039 301.349 406.607C303.009 403.923 304.689 401.24 306.368 398.538C308.125 395.874 309.891 393.19 311.677 390.497C312.796 387.447 313.926 384.388 315.065 381.318C316.204 378.287 317.352 375.257 318.501 372.216C319.91 369.272 321.319 366.309 322.738 363.336C323.974 360.276 325.219 357.217 326.474 354.138C327.545 350.991 328.616 347.844 329.697 344.688C329.891 341.416 330.074 338.134 330.267 334.862C330.778 331.648 331.29 328.434 331.811 325.21C332.593 321.977 333.375 318.733 334.166 315.481C334.215 312.257 334.263 309.033 334.311 305.809C334.33 302.595 334.35 299.391 334.369 296.176C334.002 293.049 333.645 289.922 333.278 286.804C333.143 283.629 333.008 280.453 332.863 277.287C332.12 274.305 331.367 271.322 330.614 268.34C330.035 265.309 329.456 262.278 328.877 259.257C328.336 256.187 327.786 253.128 327.236 250.058C326.31 247.163 325.373 244.257 324.437 241.362C323.327 238.553 322.207 235.744 321.088 232.935C319.785 230.233 318.491 227.521 317.179 224.818C315.596 222.308 314.013 219.789 312.42 217.28C310.605 214.953 308.781 212.627 306.957 210.291C305.104 207.994 303.25 205.697 301.388 203.4C299.505 201.103 297.623 198.815 295.722 196.518C293.212 194.877 290.693 193.246 288.174 191.605C285.935 189.684 283.676 187.754 281.417 185.833C279.168 183.864 276.91 181.895 274.632 179.926C271.881 178.632 269.12 177.349 266.35 176.055C263.918 174.231 261.466 172.407 259.005 170.592C256.206 169.328 253.387 168.063 250.569 166.799C247.606 165.834 244.633 164.859 241.66 163.903C238.523 163.392 235.376 162.88 232.22 162.368C229.315 161.133 226.4 159.907 223.466 158.681C220.203 158.614 216.931 158.556 213.659 158.488C210.493 158.073 207.308 157.658 204.132 157.243C200.899 157.176 197.656 157.118 194.422 157.06C191.199 156.587 187.955 156.123 184.722 155.66C181.431 155.776 178.149 155.901 174.857 156.017C171.576 156.452 168.304 156.886 165.022 157.311C161.837 158.286 158.651 159.251 155.466 160.216C152.291 161.027 149.115 161.828 145.949 162.629C142.841 163.604 139.733 164.579 136.625 165.544C133.556 166.577 130.486 167.61 127.427 168.633C124.27 169.482 121.124 170.322 117.968 171.152C115.043 172.494 112.118 173.816 109.194 175.129C106.163 176.287 103.142 177.435 100.121 178.584C97.6208 180.505 95.1112 182.406 92.6113 184.298C89.8604 185.823 87.1096 187.339 84.3587 188.844C81.8588 190.649 79.3685 192.445 76.8783 194.23C74.1274 195.775 71.3669 197.309 68.616 198.834C66.7917 201.209 64.9771 203.573 63.1529 205.919C60.7109 207.743 58.2689 209.548 55.8365 211.363C53.9061 213.554 51.9757 215.745 50.0452 217.926C47.7963 219.915 45.5473 221.893 43.2984 223.872C41.6865 226.237 40.0842 228.602 38.4723 230.957C37.0824 233.399 35.6828 235.841 34.2929 238.283C32.7389 240.647 31.1849 243.003 29.6406 245.358C28.2989 247.809 26.9669 250.261 25.6253 252.703C24.7373 255.299 23.8493 257.886 22.9709 260.483C22.1408 263.079 21.3107 265.676 20.4903 268.262C20.056 270.936 19.6313 273.6 19.1969 276.274C18.5213 278.889 17.8553 281.505 17.1893 284.121C16.3206 286.737 15.4615 289.362 14.6025 291.978C14.4384 294.69 14.2743 297.402 14.1199 300.114C14.8438 302.836 15.558 305.558 16.282 308.29C16.504 310.983 16.726 313.676 16.9576 316.369Z" fill="white"/>
    </g>
    <g opacity="0.1">
      <path d="M43.0086 316.301C43.4526 318.907 43.9062 321.513 44.3502 324.129C44.6881 326.764 45.0355 329.389 45.3734 332.024C46.3386 334.563 47.2845 337.111 48.2304 339.659C49.1088 342.207 49.9871 344.765 50.8558 347.333C51.599 349.958 52.3422 352.584 53.0854 355.219C54.6008 357.593 56.1066 359.967 57.593 362.361C59.2339 364.649 60.8651 366.946 62.477 369.262C63.9731 371.618 65.4595 373.982 66.9267 376.357C68.278 378.837 69.6196 381.328 70.9516 383.828C72.6986 386.077 74.436 388.345 76.1638 390.632C78.1811 392.669 80.1791 394.725 82.1771 396.8C84.0592 398.972 85.9221 401.163 87.785 403.373C89.9664 405.236 92.1284 407.118 94.2905 409.02C96.4333 410.921 98.5761 412.842 100.7 414.782C102.833 416.732 104.966 418.711 107.099 420.689C109.444 422.33 111.78 423.981 114.106 425.65C116.616 426.905 119.126 428.16 121.635 429.424C124.039 430.921 126.432 432.436 128.826 433.951C131.316 435.225 133.797 436.499 136.277 437.793C138.768 439.154 141.248 440.524 143.729 441.895C146.393 442.194 149.057 442.503 151.721 442.802C154.269 443.941 156.817 445.08 159.365 446.229C161.981 446.287 164.597 446.354 167.213 446.412C169.799 446.779 172.386 447.136 174.973 447.503C177.569 447.792 180.166 448.082 182.753 448.372C185.291 448.13 187.839 447.899 190.388 447.657C193.003 447.821 195.629 447.976 198.244 448.14C200.677 447.329 203.109 446.518 205.561 445.708C208.09 445.273 210.628 444.829 213.167 444.395C215.705 443.835 218.244 443.285 220.792 442.725C222.983 441.19 225.184 439.656 227.404 438.121C229.807 437.088 232.22 436.046 234.652 435.013C237.017 433.787 239.392 432.552 241.785 431.326C243.909 429.598 246.061 427.87 248.223 426.133C250.385 424.415 252.567 422.687 254.767 420.95C256.601 418.73 258.455 416.5 260.317 414.271C262.258 412.176 264.227 410.062 266.205 407.948C268.377 405.999 270.558 404.039 272.769 402.07C274.255 399.416 275.761 396.761 277.276 394.088C279.187 391.742 281.108 389.387 283.048 387.022C284.824 384.494 286.61 381.945 288.415 379.388C289.351 376.347 290.297 373.297 291.253 370.247C293.087 367.602 294.94 364.948 296.803 362.274C297.913 359.272 299.032 356.261 300.162 353.24C301.059 350.161 301.967 347.072 302.874 343.974C303.192 340.798 303.511 337.623 303.829 334.447C304.872 331.349 305.914 328.241 306.966 325.123C307.43 321.957 307.893 318.782 308.356 315.606C308.202 312.479 308.047 309.351 307.893 306.234C307.739 303.145 307.574 300.056 307.41 296.968C307.459 293.84 307.497 290.703 307.546 287.576C306.889 284.632 306.233 281.688 305.576 278.754C304.746 275.907 303.907 273.069 303.077 270.231C302.604 267.239 302.121 264.247 301.648 261.255C300.76 258.427 299.872 255.608 298.984 252.78C297.99 249.991 296.996 247.201 296.002 244.412C294.351 242.047 292.7 239.682 291.05 237.317C289.419 234.962 287.788 232.597 286.147 230.242C284.66 227.733 283.174 225.223 281.668 222.723C279.776 220.542 277.875 218.361 275.964 216.179C273.859 214.191 271.746 212.193 269.632 210.204C267.228 208.554 264.815 206.903 262.383 205.253C259.748 203.94 257.094 202.618 254.43 201.305C252.026 199.626 249.604 197.946 247.162 196.276C244.382 195.166 241.602 194.066 238.803 192.966C236.158 191.527 233.504 190.08 230.83 188.651C227.722 188.246 224.614 187.85 221.496 187.454C218.437 187.03 215.367 186.605 212.298 186.19C209.373 185.118 206.429 184.047 203.476 182.985C200.31 182.86 197.144 182.734 193.968 182.609C190.774 183.034 187.569 183.449 184.374 183.873C181.208 183.738 178.033 183.613 174.857 183.487C171.701 184.008 168.535 184.52 165.379 185.032C162.232 185.562 159.086 186.084 155.939 186.615C152.792 187.194 149.646 187.763 146.499 188.333C143.449 189.279 140.399 190.215 137.359 191.141C134.492 192.483 131.635 193.815 128.778 195.137C125.843 196.267 122.909 197.377 119.975 198.487C117.079 199.703 114.184 200.909 111.298 202.106C108.788 203.863 106.279 205.6 103.779 207.318C101.327 209.065 98.885 210.803 96.443 212.531C93.8755 214.133 91.3177 215.725 88.7502 217.299C86.2696 218.998 83.789 220.696 81.3084 222.376C79.5806 224.663 77.8433 226.941 76.1155 229.21C73.7025 230.986 71.2991 232.752 68.886 234.509C67.2259 236.767 65.556 239.026 63.8959 241.275C62.7183 243.746 61.5407 246.217 60.3535 248.678C58.5293 250.821 56.7147 252.964 54.8904 255.106C54.0989 257.664 53.2978 260.222 52.5063 262.78C51.1936 265.145 49.8906 267.5 48.5875 269.855C47.7092 272.355 46.8405 274.855 45.9621 277.345C45.2382 279.883 44.5143 282.422 43.8001 284.951C43.2113 287.528 42.6225 290.095 42.0434 292.663C41.8889 295.288 41.7441 297.923 41.5994 300.549C42.082 303.184 42.5549 305.828 43.0279 308.463C42.9893 311.06 42.9989 313.676 43.0086 316.301Z" fill="white"/>
    </g>
    <g opacity="0.4">
      <path d="M195.907 417.022C251.722 412.593 293.379 363.756 288.95 307.941C284.521 252.125 235.684 210.468 179.869 214.897C124.054 219.326 82.3966 268.163 86.8253 323.978C91.254 379.794 140.091 421.451 195.907 417.022Z" fill="#C5EAFF"/>
    </g>
    <path d="M146.434 368.767C144.726 355.051 127.024 346.219 115.036 353.091C118.742 345.061 115.798 334.54 108.453 329.617C101.108 324.685 90.2587 325.95 84.2358 332.426C85.1141 323.459 70.9544 317.948 65.5396 325.148C65.3176 318.43 55.4241 317.89 49.0633 320.062C37.5386 323.98 26.5352 329.434 16.4294 336.229C17.8482 327.137 9.56665 317.822 0.368141 318.17C5.26179 310.989 2.92597 300.526 -3.29967 294.474C-9.52532 288.422 -18.6466 286.192 -27.3336 286.298C-24.0132 280.623 -24.6696 272.892 -28.8972 267.843C-33.1249 262.805 -40.615 260.807 -46.7923 263.075C-43.8291 255.228 -46.0009 245.692 -52.0817 239.91C-58.1626 234.128 -67.7858 232.42 -75.4786 235.769C-84.9763 220.886 -111.221 222.295 -119.068 238.105C-122.861 245.759 -122.514 254.736 -122.079 263.268C-120.767 288.943 -119.454 314.628 -118.141 340.302C-29.9976 353.333 52.4609 390.619 137.979 415.628C157.187 421.245 179.705 419.73 180.941 395.32C181.375 386.681 177.842 374.683 170.767 369.471C168.567 367.83 145.595 362.049 146.434 368.767Z" fill="url(#paint0_linear_564_3230)"/>
    <path d="M464.966 239.157C449.696 242.66 435.97 257.621 439.436 272.901C430.083 271.308 420.035 277.428 417.149 286.462C405.47 276.491 391.011 267.997 375.712 269.31C360.413 270.623 345.877 285.699 350.153 300.448C337.798 297.649 324.054 306.944 322.065 319.463C308.147 316.326 293.543 330.987 296.738 344.896C281.449 343.4 266.372 356.846 266.131 372.212C259.249 369.422 251.865 366.585 244.597 368.081C237.329 369.577 230.91 377.424 233.777 384.267C227.271 382.163 220.225 380.059 213.72 382.182C207.214 384.306 202.427 392.655 206.403 398.215C199.685 397.394 190.583 398.176 189.29 404.817C187.997 411.448 196.143 415.608 202.716 417.133C280.078 435.018 360.664 416.284 437.833 397.607C461.964 391.767 487.754 384.943 503.864 366.054C517.164 350.456 521.547 328.787 520.108 308.343C517.637 273.026 510.36 228.742 464.966 239.157Z" fill="url(#paint1_linear_564_3230)"/>
    <path d="M-135.515 292.108C-128.151 285.014 -115.786 285.69 -106.993 290.921C-98.2 296.153 -92.1867 304.898 -86.5402 313.43C-79.3011 310.457 -70.3149 318.478 -72.448 326.007C-64.2823 320.515 -52.6418 322.426 -45.0359 328.68C-37.43 334.925 -33.3664 344.607 -31.6001 354.288C-23.6177 344.771 -9.59311 340.852 2.16322 344.857C13.9196 348.863 22.6355 360.542 23.1277 372.955C30.7143 360.813 49.5843 360.175 61.1476 368.631C72.7012 377.086 78.1258 391.622 80.6836 405.714C87.1216 397.771 99.901 397.442 108.617 402.79C117.333 408.137 122.593 417.693 125.972 427.345C131.84 421.631 139.436 417.162 147.621 417.046C155.806 416.93 164.358 422.162 166.144 430.154C170.024 419.15 181.356 411.216 193.025 411.342C204.695 411.467 215.853 419.623 219.501 430.714C228.005 419.836 247.695 421.312 254.48 433.329C259.953 421.515 277.53 417.625 287.481 426.032C286.4 410.791 303.504 397.327 318.059 401.96C316.032 385.204 324.555 367.627 338.966 358.843C353.377 350.06 372.903 350.523 386.87 359.992C395.894 345.33 415.392 338.082 431.81 343.265C432.688 327.242 442.283 311.963 456.327 304.203C470.37 296.442 488.41 296.452 502.445 304.232V490.653C486.847 485.528 465.303 482.256 451.906 491.744C445.69 496.146 441.665 502.989 435.961 508.037C419.272 522.824 388.781 516.068 379.91 495.605C369.708 503.336 355.857 506.029 343.502 502.69C342.865 513.24 331.997 520.816 321.457 521.521C310.917 522.226 300.772 517.844 291.168 513.433C281.564 509.022 271.584 504.408 261.025 504.601C244.992 504.9 227.995 508.481 225.563 524.33C221.181 517.708 214.646 523.664 206.905 525.421C199.164 527.177 192.851 534.05 191.761 541.916C183.17 534.31 169.541 533.104 159.744 539.069C149.716 522.901 136.695 508.597 121.532 497.101C109.959 488.327 96.6193 481.021 82.1314 479.997C67.6435 478.974 51.9491 485.47 45.4049 498.433C38.5036 487.459 22.6934 483.25 11.2459 489.341C8.54329 472.353 -6.95808 458.28 -24.1293 457.238C-41.3005 456.195 -58.3945 468.27 -63.153 484.804C-70.5176 479.949 -80.9516 480.316 -87.9591 485.673C-101.221 468.222 -128.913 464.052 -146.721 476.832L-135.515 292.108Z" fill="url(#paint2_linear_564_3230)"/>
    <path d="M314.575 176.091L299.817 191.756L295.753 191.003H295.155C295.155 191.003 294.199 189.681 292.191 187.046C290.386 184.681 287.722 181.274 284.161 176.844C276.632 167.51 263.978 150.648 263.978 150.648C263.978 150.648 270.155 145.069 275.126 146.574C280.087 148.08 281.757 150.648 281.757 150.648C281.757 150.648 287.626 145.223 295.463 150.194C303.291 155.155 303.446 164.798 303.446 164.798C303.446 164.798 313.233 166.12 314.459 174.334C314.536 174.903 314.575 175.473 314.575 176.091Z" fill="white"/>
    <path opacity="0.21" d="M314.575 176.09L299.816 191.756L295.753 191.003H295.154C295.154 191.003 294.199 189.681 292.191 187.046L314.449 174.343C314.536 174.903 314.575 175.473 314.575 176.09Z" fill="#D6A392"/>
    <path d="M362.305 222.025C362.044 223.396 361.455 224.679 360.432 225.712C360.287 225.857 360.123 226.011 359.969 226.146C358.801 227.17 357.334 227.913 355.809 228.27C354.679 228.531 353.511 228.588 352.401 228.395C352.334 229.351 352.199 230.287 351.967 231.224C351.745 232.189 351.427 233.125 351.041 234.032C350.925 234.303 350.799 234.573 350.664 234.833C350.384 235.364 350.046 235.857 349.602 236.272C348.956 236.86 348.164 237.227 347.315 237.468C347.054 237.536 346.803 237.604 346.543 237.652C342.247 238.492 337.074 237.179 334.004 234.052C333.377 235.133 332.479 236.001 331.427 236.638C330.887 236.967 330.317 237.237 329.709 237.439C327.933 238.057 325.926 238.154 324.111 237.642C320.482 236.619 317.644 233.588 316.167 230.104C314.42 231.407 312.403 232.411 310.25 232.633C308.079 232.835 305.617 232.054 304.179 230.432C305.318 229.399 306.476 228.366 307.625 227.334C309.276 225.857 310.974 224.506 312.596 223.077C313.976 221.871 315.299 220.606 316.495 219.197C308.204 219.95 299.749 216.407 294.073 210.298C293.514 209.699 292.983 209.081 292.471 208.425C292.288 208.184 292.104 207.942 291.921 207.701C291.882 207.643 291.834 207.595 291.805 207.537C291.574 207.219 291.352 206.881 291.13 206.553C291.052 206.446 290.985 206.331 290.908 206.224C290.695 205.906 290.483 205.568 290.27 205.25C290.193 205.134 290.126 205.008 290.049 204.892C289.865 204.612 289.682 204.333 289.498 204.053C289.421 203.937 289.354 203.821 289.267 203.705C289.083 203.425 288.89 203.155 288.697 202.875C288.61 202.759 288.543 202.643 288.446 202.537C288.301 202.335 288.166 202.151 288.012 201.958C287.954 201.881 287.886 201.804 287.819 201.726C287.732 201.611 287.645 201.504 287.558 201.398C287.375 201.186 287.182 200.974 287.008 200.771C286.825 200.578 286.641 200.394 286.458 200.221C285.338 199.13 284.045 198.242 282.578 197.759C282.066 197.595 281.516 197.489 280.966 197.441C279.151 197.296 277.269 197.846 276.062 199.169C276.062 199.169 276.149 196.167 277.568 193.049C278.447 191.099 279.846 189.101 282.057 187.75C286.178 185.241 289.44 187.837 293.533 188.841C295.145 189.246 296.892 189.391 298.88 188.879C302.722 187.885 308.735 181.978 314.517 174.971C319.275 169.199 323.889 162.693 327.007 157.597C330.79 151.381 334.854 142.839 338.107 136.545C342.132 138.273 345.992 140.348 349.651 142.713C350.461 143.939 350.973 145.503 350.722 147.443C349.94 153.417 344.622 157.828 344.622 157.828C344.622 157.828 353.212 164.73 348.695 174.324C344.178 183.928 333.667 184.044 333.667 184.044C333.667 184.044 343.386 189.237 336.717 196.804C330.173 204.226 318.851 199.043 318.426 198.84C320.221 202.364 323.435 204.95 326.698 207.151C329.97 209.352 333.618 210.925 337.325 212.276C342.614 214.187 348.068 215.655 353.608 216.649C355.365 216.967 357.131 217.238 358.897 217.45C360.007 217.595 361.127 217.71 362.247 217.817C362.507 219.197 362.565 220.654 362.305 222.025Z" fill="white"/>
    <path d="M280.966 197.412C279.151 197.267 277.259 197.817 276.062 199.149C276.062 199.149 276.149 196.147 277.568 193.03C278.958 193.261 280.223 194.236 280.763 195.539C281.014 196.118 281.12 196.784 280.966 197.412Z" fill="url(#paint3_linear_564_3230)"/>
    <path d="M285.946 191.283C285.946 192.093 285.29 192.75 284.479 192.75C283.669 192.75 283.012 192.093 283.012 191.283C283.012 190.472 283.669 189.815 284.479 189.815C285.29 189.815 285.946 190.472 285.946 191.283Z" fill="url(#paint4_linear_564_3230)"/>
    <path opacity="0.21" d="M327.007 217.141L312.596 223.058C313.976 221.851 315.308 220.587 316.496 219.178L327.007 217.141Z" fill="#D6A392"/>
    <path d="M64.1348 179.091L78.8929 194.757L82.9565 194.004H83.5549C83.5549 194.004 84.5105 192.681 86.5181 190.046C88.3231 187.682 90.9871 184.274 94.5487 179.844C102.077 170.51 114.731 153.648 114.731 153.648C114.731 153.648 108.554 148.069 103.583 149.575C98.6219 151.081 96.9521 153.648 96.9521 153.648C96.9521 153.648 91.0836 148.224 83.246 153.194C75.4181 158.156 75.2637 167.798 75.2637 167.798C75.2637 167.798 65.4764 169.12 64.2506 177.334C64.183 177.904 64.1348 178.473 64.1348 179.091Z" fill="white"/>
    <path opacity="0.21" d="M64.1348 179.091L78.8929 194.756L82.9565 194.003H83.5549C83.5549 194.003 84.5105 192.681 86.5181 190.046L64.2602 177.344C64.183 177.904 64.1348 178.473 64.1348 179.091Z" fill="#D6A392"/>
    <path d="M16.4049 225.025C16.6655 226.396 17.2543 227.68 18.2774 228.713C18.4222 228.857 18.5863 229.012 18.7407 229.147C19.9086 230.17 21.3758 230.913 22.9008 231.27C24.0301 231.531 25.198 231.589 26.308 231.396C26.3756 232.351 26.5107 233.288 26.7424 234.224C26.9644 235.189 27.2829 236.125 27.669 237.033C27.7848 237.303 27.9103 237.573 28.0454 237.834C28.3253 238.365 28.6632 238.857 29.1072 239.272C29.7539 239.861 30.5453 240.228 31.3947 240.469C31.6553 240.536 31.9063 240.604 32.1669 240.652C36.4621 241.492 41.6357 240.179 44.7051 237.052C45.3324 238.133 46.2301 239.002 47.2822 239.639C47.8227 239.967 48.3922 240.237 49.0003 240.44C50.7763 241.058 52.7839 241.154 54.5985 240.643C58.2277 239.62 61.0655 236.589 62.5423 233.104C64.2893 234.407 66.3066 235.411 68.459 235.633C70.6308 235.836 73.0921 235.054 74.5302 233.433C73.3913 232.4 72.233 231.367 71.0844 230.334C69.4339 228.857 67.7351 227.506 66.1136 226.078C64.7333 224.871 63.4109 223.607 62.2141 222.197C70.5053 222.95 78.9606 219.408 84.6361 213.298C85.1959 212.7 85.7268 212.082 86.2383 211.426C86.4217 211.184 86.6051 210.943 86.7885 210.702C86.8271 210.644 86.8754 210.595 86.9043 210.538C87.136 210.219 87.358 209.881 87.58 209.553C87.6572 209.447 87.7248 209.331 87.802 209.225C88.0143 208.906 88.2267 208.569 88.439 208.25C88.5162 208.134 88.5838 208.009 88.661 207.893C88.8444 207.613 89.0278 207.333 89.2112 207.053C89.2884 206.937 89.356 206.821 89.4428 206.706C89.6262 206.426 89.8193 206.155 90.0123 205.876C90.0992 205.76 90.1668 205.644 90.2633 205.538C90.4081 205.335 90.5432 205.152 90.6976 204.959C90.7555 204.881 90.8231 204.804 90.8907 204.727C90.9775 204.611 91.0644 204.505 91.1513 204.399C91.3347 204.186 91.5277 203.974 91.7014 203.771C91.8848 203.578 92.0682 203.395 92.2516 203.221C93.3713 202.131 94.6647 201.243 96.1318 200.76C96.6434 200.596 97.1935 200.49 97.7437 200.441C99.5583 200.297 101.44 200.847 102.647 202.169C102.647 202.169 102.56 199.167 101.141 196.05C100.263 194.1 98.8634 192.102 96.653 190.751C92.5315 188.241 89.2691 190.838 85.1766 191.841C83.5647 192.247 81.8176 192.392 79.8293 191.88C75.9877 190.886 69.9744 184.979 64.1928 177.971C59.4343 172.199 54.8205 165.694 51.7029 160.597C47.9192 154.381 43.8557 145.839 40.6029 139.546C36.5779 141.274 32.7171 143.349 29.0589 145.714C28.2481 146.939 27.7366 148.503 27.9875 150.443C28.7693 156.418 34.0877 160.829 34.0877 160.829C34.0877 160.829 25.4973 167.73 30.0145 177.324C34.5317 186.928 45.0429 187.044 45.0429 187.044C45.0429 187.044 35.3232 192.237 41.9928 199.804C48.537 207.227 59.859 202.044 60.2836 201.841C58.4883 205.364 55.2742 207.951 52.0117 210.151C48.7397 212.352 45.0911 213.925 41.3847 215.277C36.0953 217.188 30.6419 218.655 25.1015 219.649C23.3448 219.968 21.5785 220.238 19.8121 220.45C18.7021 220.595 17.5825 220.711 16.4628 220.817C16.2119 222.197 16.154 223.655 16.4049 225.025Z" fill="white"/>
    <path d="M97.7531 200.412C99.5678 200.268 101.46 200.818 102.656 202.15C102.656 202.15 102.57 199.148 101.151 196.03C99.7608 196.262 98.4964 197.237 97.9558 198.54C97.7049 199.119 97.5987 199.785 97.7531 200.412Z" fill="url(#paint5_linear_564_3230)"/>
    <path d="M92.7727 194.283C92.7727 195.094 93.429 195.75 94.2398 195.75C95.0506 195.75 95.707 195.094 95.707 194.283C95.707 193.472 95.0506 192.816 94.2398 192.816C93.429 192.816 92.7727 193.472 92.7727 194.283Z" fill="url(#paint6_linear_564_3230)"/>
    <path opacity="0.21" d="M51.7029 220.141L66.1136 226.058C64.7333 224.851 63.4013 223.587 62.2141 222.178L51.7029 220.141Z" fill="#D6A392"/>
    <path d="M317.388 362.27C322.532 376.179 329.839 404.44 321.027 437.47C310.573 476.629 283.46 499.215 272.283 507.11L274.909 510.836C289.3 500.672 314.984 477.787 325.428 438.648C334.569 404.402 326.992 375.107 321.664 360.697L317.388 362.27Z" fill="#48A95E"/>
    <path d="M321.5 469.545C328.189 469.429 334.955 468.106 340.843 464.921C346.73 461.736 351.682 456.572 353.883 450.26C354.414 448.725 354.79 447.036 354.336 445.472C353.777 443.542 352.02 442.133 350.099 441.544C348.178 440.955 346.113 441.08 344.134 441.409C336.277 442.712 329.183 447.045 323.343 452.46C318.604 456.852 314.598 461.958 310.747 467.132C308.45 470.22 309.512 470.143 312.803 469.815C315.699 469.525 318.585 469.593 321.5 469.545Z" fill="#48A95E"/>
    <path d="M351.856 428.841C352.715 428.079 353.564 427.297 354.172 426.332C354.819 425.309 355.176 424.121 355.581 422.973C356.527 420.241 357.773 417.597 358.371 414.778C358.969 411.95 358.834 408.813 357.203 406.429C356.942 406.043 356.624 405.667 356.19 405.493C355.755 405.309 355.263 405.358 354.8 405.425C347.068 406.545 341.431 413.147 336.856 419.488C333.507 424.141 330.312 428.899 327.156 433.696C325.573 436.109 321.77 440.945 325.795 443.281C329.038 445.163 335.65 440.183 338.439 438.561C343.207 435.762 347.715 432.509 351.856 428.841Z" fill="#48A95E"/>
    <path d="M277.611 450.279C275.449 448.078 273.586 445.463 272.833 442.471C272.08 439.478 272.592 436.052 274.667 433.764C277.158 431.013 281.414 430.425 284.985 431.448C288.557 432.471 291.587 434.826 294.396 437.258C297.205 439.7 299.898 442.278 302.465 444.97C304.116 446.708 305.738 448.551 306.568 450.8C307.34 452.885 307.359 455.163 307.697 457.364C307.967 459.101 312.349 470.018 311.355 470.307C310.467 470.558 307.301 467.614 306.404 467.064C304.444 465.858 302.408 464.796 300.361 463.773C292.485 459.854 283.904 456.679 277.611 450.279Z" fill="#48A95E"/>
    <path d="M313.247 436.061C308.942 432.606 304.241 429.613 300.293 425.752C297.224 422.751 294.666 419.266 292.311 415.676C289.271 411.052 286.481 406.091 285.603 400.618C285.14 397.713 285.275 394.576 286.809 392.066C287.089 391.613 287.466 391.14 287.987 391.043C288.479 390.947 288.962 391.188 289.406 391.429C291.809 392.752 294.077 394.277 296.326 395.85C304.241 401.381 312.05 407.626 316.625 416.129C320.804 423.899 321.934 432.885 322.995 441.65C323.092 442.441 323.796 445.443 322.822 445.858C321.808 446.283 320.679 443.628 320.167 442.953C318.218 440.337 315.785 438.098 313.247 436.061Z" fill="#48A95E"/>
    <path d="M313.025 395.455C307.948 392.829 303.083 389.808 298.47 386.439C295.381 384.181 292.35 381.71 290.333 378.457C287.968 374.644 287.167 369.886 288.18 365.504C288.373 364.664 288.731 363.728 289.551 363.438C290.149 363.226 290.806 363.448 291.395 363.67C298.991 366.537 306.172 370.494 312.649 375.388C314.434 376.729 316.191 378.187 317.398 380.059C318.459 381.7 319.048 383.602 319.897 385.368C321.278 388.264 331.847 399.093 329.106 401.574C327.233 403.273 324.125 401.217 322.513 400.319C319.415 398.582 316.181 397.086 313.025 395.455Z" fill="#48A95E"/>
    <path d="M301.954 352.879C298.894 349.066 297.62 344.144 296.722 339.337C296.201 336.557 295.786 333.729 296.124 330.92C296.491 327.803 297.775 324.878 299.039 322.002C300.313 319.106 302.079 315.815 305.216 315.342C307.253 315.033 309.299 316.095 310.737 317.571C312.176 319.048 313.141 320.911 314.203 322.677C317.504 328.198 321.886 333.063 324.685 338.854C326.47 342.542 327.532 346.779 327.088 350.881C326.857 352.985 326.084 354.665 325.254 356.576C324.25 358.892 323.99 361.074 323.546 363.554C322.561 369.017 317.002 363.458 314.154 361.74C309.859 359.153 305.158 356.865 301.954 352.879Z" fill="#48A95E"/>
    <path d="M333.063 376.121C335.505 367.753 339.394 359.548 345.842 353.68C346.18 353.371 346.566 353.052 347.02 352.994C347.435 352.946 347.85 353.12 348.226 353.323C352.174 355.427 354.095 360.234 353.911 364.703C353.728 369.171 351.788 373.37 349.635 377.299C345.157 385.474 339.23 393.341 330.823 397.356C330.447 399.325 329.462 402.018 327.735 403.128C326.876 400.058 329.076 394.518 329.646 391.429C330.611 386.294 331.596 381.15 333.063 376.121Z" fill="#48A95E"/>
    <path d="M158.503 322.154C157.818 318.67 152.413 287.426 174.062 265.264C196.233 242.553 230.943 244.194 252.351 257.263C266.646 265.998 274.204 278.864 278.026 288.121L274.377 289.627C270.777 280.911 263.673 268.807 250.285 260.622C230.19 248.344 197.633 246.761 176.881 268.006C156.64 288.729 161.727 318.1 162.374 321.382L158.503 322.154Z" fill="#48A95E"/>
    <path d="M158.098 278.565C157.026 275.303 156.495 271.886 155.965 268.498C155.221 263.72 154.468 258.904 154.662 254.068C154.855 249.232 156.071 244.329 158.908 240.41C159.845 239.126 161.322 237.843 162.837 238.325C164.285 238.779 164.796 240.516 165.047 242.012C166.63 251.655 165.8 261.51 164.96 271.239C164.555 275.949 164.613 280.978 163.725 285.621C163.194 288.391 161.466 285.37 160.646 284.086C159.555 282.378 158.735 280.495 158.098 278.565Z" fill="#48A95E"/>
    <path d="M172.421 259.888C173.107 254.164 173.792 248.402 175.346 242.852C176.909 237.302 179.39 231.906 183.28 227.65C184.207 226.636 185.259 225.661 186.571 225.246C187.884 224.831 189.506 225.121 190.287 226.25C191.021 227.322 190.828 228.75 190.587 230.024C188.328 241.665 184.091 253.025 177.508 262.938C175.78 265.544 173.908 268.421 171.639 270.592C172.151 267.108 171.997 263.43 172.421 259.888Z" fill="#48A95E"/>
    <path d="M199.727 231.762C200.876 229.6 202.276 227.467 204.341 226.164C206.407 224.86 209.293 224.581 211.233 226.067C213.607 227.882 213.723 231.443 212.941 234.329C211.416 239.918 207.469 244.522 203.164 248.402C200.77 250.564 198.26 252.919 195.616 254.773C192.604 256.886 193.618 251.578 193.907 250.043C195.065 243.75 196.716 237.457 199.727 231.762Z" fill="#48A95E"/>
    <path d="M220.624 238.576C223.414 234.648 226.435 230.517 230.885 228.683C233.829 227.467 237.091 227.389 240.276 227.466C242.081 227.515 243.963 227.621 245.517 228.538C248.172 230.082 249.127 233.711 248.172 236.636C247.226 239.561 244.726 241.771 241.956 243.084C239.176 244.396 236.116 244.937 233.085 245.458C228.529 246.25 223.974 247.031 219.427 247.823C216.368 248.354 214.437 249.348 211.889 250.97C214.379 246.665 217.748 242.649 220.624 238.576Z" fill="#48A95E"/>
    <path d="M259.909 246.53C265.661 244.908 271.829 244.29 277.63 245.719C278.701 245.98 279.811 246.346 280.584 247.138C281.694 248.277 281.848 250.024 281.935 251.616C282.051 253.643 282.07 255.941 280.622 257.369C279.474 258.508 277.736 258.73 276.124 258.856C266.752 259.589 257.274 258.807 248.152 256.558C246.984 256.269 243.789 255.535 243.896 253.856C243.983 252.36 247.332 251.423 248.432 250.921C252.148 249.213 255.951 247.64 259.909 246.53Z" fill="#48A95E"/>
    <path d="M275.169 265.738C279.271 265.844 283.267 267.176 286.944 269.019C289.425 270.255 291.857 271.799 293.402 274.096C294.946 276.394 295.4 279.608 293.884 281.924C293.305 282.803 292.407 283.546 291.355 283.604C290.554 283.652 289.792 283.305 289.058 282.957C283.653 280.409 278.248 277.87 272.842 275.322C270.941 274.425 263.296 271.78 264.995 268.933C266.665 266.162 272.35 265.67 275.169 265.738Z" fill="#48A95E"/>
    <path d="M257.969 300.35C257.699 301.817 257.525 303.342 257.882 304.79C258.239 306.238 259.224 307.609 260.652 308.053C263.027 308.786 265.353 306.798 266.752 304.742C271.028 298.468 271.791 290.621 271.839 283.217C271.858 279.965 271.26 278.575 268.277 280.872C265.662 282.889 263.712 285.949 262.129 288.796C260.131 292.377 258.702 296.296 257.969 300.35Z" fill="#48A95E"/>
    <path d="M240.778 278.903C239.938 283.14 241.579 288.323 245.672 289.704C248.036 290.495 250.739 289.819 252.708 288.294C254.677 286.769 255.951 284.482 256.646 282.088C257.824 277.986 257.36 273.546 256.096 269.463C255.054 266.123 253.49 262.967 251.849 259.888C250.256 256.915 249.571 257.745 248.654 260.631C246.647 266.915 242.052 272.455 240.778 278.903Z" fill="#48A95E"/>
    <path d="M217.507 271.655C218.655 273.913 220.653 275.631 222.748 277.06C224.948 278.565 227.738 279.859 230.199 278.836C232.265 277.977 233.404 275.718 233.886 273.537C235.141 267.784 232.931 261.636 229.041 257.215C226.956 254.85 216.821 245.449 216.3 252.939C216.088 256.037 216.561 259.261 216.358 262.417C216.165 265.525 216.049 268.797 217.507 271.655Z" fill="#48A95E"/>
    <path d="M176.813 267.243C179.323 266.114 182.296 267.224 184.564 268.787C186.832 270.351 188.82 272.397 191.378 273.43C196.002 275.303 201.899 272.948 203.965 268.411C204.795 266.587 204.93 264.164 203.434 262.832C202.652 262.127 201.571 261.877 200.529 261.693C189.564 259.782 177.73 263.884 170.308 272.175L176.813 267.243Z" fill="#48A95E"/>
    <path d="M183.02 287.918C184.767 288.381 186.523 288.912 188.328 288.961C190.133 289.009 192.044 288.507 193.29 287.194C194.979 285.418 195.008 282.445 193.685 280.37C192.363 278.295 189.95 277.098 187.518 276.799C185.076 276.509 182.614 277.031 180.288 277.803C175.365 279.444 169.844 282.455 166.601 286.615C168.165 287.465 172.2 286.287 174.188 286.393C177.18 286.557 180.143 287.146 183.02 287.918Z" fill="#48A95E"/>
    <path d="M271.147 537.373L103.236 528.373C97.0756 528.042 92.3417 522.495 92.6452 515.996L104.237 274.421C104.551 267.912 109.8 262.899 115.95 263.23L283.862 272.23C294.442 272.796 302.575 282.32 302.039 293.489L291.256 518.166C290.73 529.335 281.727 537.939 271.147 537.373Z" fill="#650205"/>
    <path d="M275.121 531.511L86.8848 521.97C86.3283 521.94 85.8933 521.465 85.9236 520.908L98.5401 271.957C98.5705 271.4 99.046 270.965 99.6025 270.996L287.839 280.536C292.817 280.789 296.651 285.029 296.398 290.006L284.591 522.972C284.338 527.93 280.099 531.764 275.121 531.511Z" fill="#F9F4DE"/>
    <path d="M83.9708 496.384C83.6977 496.687 83.293 497.203 82.9287 497.901C80.5916 502.414 83.6572 508.171 88.5237 517.023C91.5185 522.477 93.2587 524.065 94.3413 525.006C97.1539 527.445 101.717 530.126 102.81 529.053C103.811 528.072 100.796 523.195 94.7156 513.492C92.1862 509.466 88.5035 503.587 83.9708 496.384Z" fill="#B76030"/>
    <path d="M264.933 524.004L127.446 517.033C177.244 519.077 227.053 521.131 276.851 523.175C272.885 523.458 268.909 523.731 264.933 524.004Z" fill="#F9F4DE"/>
    <path d="M90.4257 509.637C90.8709 511.347 91.6499 512.399 92.7022 513.735C93.4104 514.635 93.8657 515.677 94.5132 516.618C95.4035 517.934 95.6362 519.573 96.5873 520.797C97.5282 522.011 98.54 523.65 99.8957 524.368C101.656 525.309 102.911 522.476 101.16 521.535C100.634 521.252 100.311 520.23 99.9564 519.775C99.3898 519.047 99.0357 518.612 98.631 517.762C98.0644 516.548 97.4574 515.596 96.739 514.484C97.0324 514.929 96.4558 513.725 96.4254 513.654C96.1725 513.108 95.7779 512.561 95.4238 512.086C94.9584 511.458 94.5334 511.155 94.1996 510.659C93.7847 510.042 93.5014 509.192 93.3193 508.484C92.8134 506.572 89.93 507.725 90.4257 509.637Z" fill="white"/>
    <path d="M261.017 517.519L93.0663 509C86.9048 508.686 82.1698 503.445 82.4733 497.284L94.0679 268.608C94.3816 262.446 99.6326 257.701 105.784 258.015L273.735 266.534C284.318 267.07 292.452 276.074 291.916 286.657L281.131 499.337C280.604 509.91 271.59 518.055 261.017 517.519Z" fill="#860106"/>
    <rect x="186.927" y="326.259" width="8.41742" height="82.0312" rx="4.20871" transform="rotate(3.37118 186.927 326.259)" fill="#FDCD3A"/>
    <rect x="216.902" y="350.598" width="8.12411" height="54.6875" rx="4.06205" transform="rotate(93.3712 216.902 350.598)" fill="#FDCD3A"/>
    <circle cx="184.254" cy="332.79" r="6.49672" transform="rotate(3.37118 184.254 332.79)" fill="#FDCD3A"/>
    <circle cx="191.12" cy="326.687" r="6.49672" transform="rotate(3.37118 191.12 326.687)" fill="#FDCD3A"/>
    <circle cx="197.223" cy="333.555" r="6.49672" transform="rotate(3.37118 197.223 333.555)" fill="#FDCD3A"/>
    <circle cx="163.999" cy="358.894" r="6.33038" transform="rotate(-86.6288 163.999 358.894)" fill="#FDCD3A"/>
    <circle cx="158.052" cy="352.203" r="6.33038" transform="rotate(-86.6288 158.052 352.203)" fill="#FDCD3A"/>
    <circle cx="164.743" cy="346.255" r="6.33038" transform="rotate(-86.6288 164.743 346.255)" fill="#FDCD3A"/>
    <circle cx="6.39617" cy="6.39617" r="6.39617" transform="matrix(0.0588042 -0.99827 -0.99827 -0.0588042 219.258 367.182)" fill="#FDCD3A"/>
    <circle cx="6.39617" cy="6.39617" r="6.39617" transform="matrix(0.0588042 -0.99827 -0.99827 -0.0588042 226.018 361.172)" fill="#FDCD3A"/>
    <circle cx="6.39617" cy="6.39617" r="6.39617" transform="matrix(0.0588042 -0.99827 -0.99827 -0.0588042 220.01 354.411)" fill="#FDCD3A"/>
    <path d="M101.464 496.464C96.1926 495.655 92.267 490.95 92.5503 485.507L103.103 277.42C103.396 271.613 108.354 267.131 114.161 267.424L273.401 275.498C279.249 275.822 283.69 280.759 283.397 286.556L272.844 494.643C272.551 500.451 267.593 504.933 261.786 504.639L102.546 496.566C102.172 496.555 101.818 496.515 101.464 496.464ZM274.321 276.631C273.998 276.581 273.674 276.55 273.34 276.53L114.101 268.456C111.561 268.325 109.133 269.195 107.251 270.895C105.359 272.594 104.256 274.931 104.125 277.471L93.5722 485.558C93.3091 490.788 97.2954 495.271 102.587 495.534L261.826 503.607L261.796 504.123L261.826 503.607C264.366 503.739 266.794 502.869 268.676 501.169C270.568 499.469 271.671 497.132 271.802 494.593L282.355 286.506C282.486 283.966 281.616 281.538 279.916 279.646C278.429 278.007 276.476 276.955 274.321 276.631Z" fill="#F2B340"/>
    <path d="M80.2688 302.524C84.535 298.026 90.365 294.252 96.5134 294.985C100.21 295.429 103.608 297.514 105.982 300.381C108.994 304.01 110.422 308.991 109.467 313.614C108.289 319.299 103.772 323.807 98.6851 326.615C93.5984 329.424 87.894 330.853 82.373 332.667C78.5604 333.922 75.2883 336.017 71.6398 337.503C67.9526 338.999 67.7789 334.733 67.8947 331.992C68.1939 325.09 70.0761 318.266 73.3289 312.176C75.2014 308.662 77.5276 305.4 80.2688 302.524Z" fill="#48A95E"/>
    <path d="M76.987 351.527C86.2821 348.719 96.7064 349.838 105.191 354.558C106.87 355.494 108.617 356.759 108.994 358.651C109.283 360.118 108.636 361.643 107.623 362.743C106.61 363.844 105.268 364.567 103.926 365.214C97.4689 368.332 90.3263 370.031 83.1548 370.156C79.1491 370.224 75.1628 369.809 71.1764 369.471C67.3059 369.143 62.808 369.818 59.063 369.181C52.8084 368.1 64.6323 358.023 66.6206 356.624C69.7672 354.384 73.2806 352.647 76.987 351.527Z" fill="#48A95E"/>
    <path d="M76.8517 383.187C87.2085 381.189 97.9996 383.158 107.864 386.893C110.296 387.81 112.729 388.872 114.679 390.58C116.628 392.298 118.047 394.779 117.912 397.375C117.758 400.329 115.615 402.887 113.018 404.296C110.422 405.705 107.42 406.149 104.486 406.448C94.5344 407.452 84.3997 407.008 74.6992 404.605C70.9639 403.678 67.2285 402.433 63.3579 402.259C60.9835 402.153 54.6227 404.296 53.2135 401.642C51.9587 399.277 55.7713 395.329 57.1613 393.823C59.584 391.188 62.4699 388.997 65.5876 387.26C69.0913 385.33 72.9136 383.949 76.8517 383.187Z" fill="#48A95E"/>
    <path d="M83.0098 426.187C88.2799 423.426 94.2159 422.316 99.9204 420.618C104.013 419.401 108.192 417.857 112.439 418.33C116.686 418.803 121.01 422.114 120.856 426.38C120.759 429.092 118.877 431.486 116.561 432.905C114.244 434.314 111.532 434.912 108.868 435.405C99.0999 437.239 89.1872 438.136 79.2744 438.831C77.788 438.937 74.5738 439.845 73.5121 438.464C72.4889 437.142 73.8402 435.009 74.5255 433.86C76.4946 430.55 79.6122 427.953 83.0098 426.187Z" fill="#48A95E"/>
    <path d="M126.329 460.172C117.053 460.124 85.3169 458.145 66.2442 434.826C41.1775 404.151 48.3105 352.801 82.4791 317.928L85.2976 320.689C48.6966 358.043 48.4166 406.786 69.2943 432.326C87.2763 454.323 117.507 456.176 126.348 456.224L126.329 460.172Z" fill="#48A95E"/>
    <path d="M63.3967 466.437C54.9704 469.438 45.9649 470.442 37.027 470.925C32.8476 471.157 28.5427 471.253 24.595 469.873C20.6376 468.492 17.0566 465.327 16.3424 461.195C15.6474 457.142 17.8771 453.001 21.1009 450.443C24.3247 447.885 28.3883 446.65 32.4036 445.762C41.0037 443.87 49.903 443.368 58.6671 444.208C63.1264 444.642 67.5471 445.414 71.8713 446.543C75.6839 447.528 81.2725 448.551 84.3612 451.012C82.9423 454.7 78.3769 458.126 75.2302 460.356C71.6107 462.943 67.5857 464.95 63.3967 466.437Z" fill="#48A95E"/>
    <path d="M30.8302 431.544C27.0755 430.096 23.3209 428.581 19.9426 426.39C16.5643 424.199 13.5722 421.284 11.8637 417.635C10.1553 413.987 9.98156 409.305 12.5587 406.217C14.2478 404.19 16.8732 403.128 19.4889 402.839C22.1047 402.539 24.7494 402.935 27.3458 403.389C39.7295 405.541 52.5669 409.45 61.0222 418.755C64.0819 422.114 66.4178 426.052 68.3096 430.164C69.3134 432.345 73.4735 439.691 71.9485 441.853C70.1628 444.381 62.47 441.428 60.2018 440.887C55.4626 439.768 50.7716 438.436 46.1386 436.969C40.9843 435.318 35.8783 433.494 30.8302 431.544Z" fill="#48A95E"/>
    <path d="M32.558 391.111C25.5794 386.941 18.9677 380.831 17.6068 372.81C16.6029 366.865 18.6781 360.803 21.6317 355.552C22.6259 353.776 23.9386 351.913 25.9366 351.508C28.4172 351.016 30.6565 353.004 32.2877 354.935C38.6871 362.483 43.0885 371.478 47.432 380.368C48.706 382.984 57.2965 400.821 52.8565 402.278C51.8237 402.616 49.3141 400.28 48.4937 399.779C46.737 398.698 44.9224 397.713 43.1078 396.748C39.5751 394.895 35.9748 393.157 32.558 391.111Z" fill="#48A95E"/>
    <path d="M42.0752 344.269C39.7394 334.849 40.2992 324.28 45.7623 316.259C46.6503 314.956 47.6927 313.71 49.0827 312.986C50.4822 312.263 52.2968 312.176 53.5516 313.122C54.6423 313.952 55.1056 315.361 55.3566 316.712C56.0805 320.65 55.5013 324.685 55.0477 328.662C53.986 338.005 53.6385 347.425 54.0246 356.817C54.0921 358.583 55.54 368.824 54.0149 368.94C51.9976 369.095 48.3105 360.021 47.4611 358.332C45.2218 353.844 43.2914 349.163 42.0752 344.269Z" fill="#48A95E"/>
    <path d="M91.2332 490.48C92.1598 492.13 93.2698 493.771 94.9493 494.65C97.0921 495.769 99.814 495.364 101.841 494.051C106.175 491.252 107.227 485.133 105.876 480.152C104.524 475.172 101.339 470.925 98.6557 466.514C96.5998 463.116 95.2968 459.361 93.3567 455.944C90.8085 451.456 89.3318 456.524 88.4245 459.274C86.2913 465.761 85.8763 472.816 87.2179 479.505C87.9708 483.347 89.3124 487.063 91.2332 490.48Z" fill="#48A95E"/>
    <path d="M503.458 407.177V456.654C487.86 451.528 466.317 448.256 452.919 457.744C446.703 462.146 442.678 468.989 436.974 474.037C420.285 488.824 389.794 482.068 380.924 461.605C370.721 469.337 356.871 472.03 344.516 468.69C343.879 479.24 333.01 486.817 322.47 487.521C311.93 488.226 301.786 483.844 292.182 479.433C282.578 475.022 272.598 470.408 262.038 470.601C246.006 470.9 231.142 483.902 228.709 499.751C224.327 493.129 215.659 489.664 207.918 491.421C200.177 493.177 193.865 500.05 192.774 507.916C184.184 500.31 170.555 499.104 160.758 505.069C150.729 488.902 137.709 474.597 122.545 463.101C110.972 454.327 97.6328 447.021 83.1449 445.998C68.657 444.975 52.9625 451.47 46.4184 464.433C39.5171 453.459 23.7068 449.25 12.2593 455.341C9.55673 438.353 -5.94464 424.28 -23.1158 423.238C-40.287 422.186 -57.381 434.27 -62.1396 450.804C-69.5042 445.949 -79.9381 446.316 -86.9456 451.673C-100.208 434.222 -127.9 430.052 -145.708 442.832L-143.546 407.167H-137.861L-137.841 848.406H516.035L516.016 407.167H503.458V407.177Z" fill="url(#paint7_linear_564_3230)"/>
    <path opacity="0.6" d="M560 558.264C525.127 556.97 491.122 582.635 482.802 616.524C471.557 608.464 453.083 615.134 449.579 628.522C440.786 618.831 422.582 620.81 416.086 632.161C402.313 617.238 379.823 611.032 360.345 616.775C340.867 622.518 325.346 639.94 321.871 659.949C306.631 656.687 289.682 665.808 284.006 680.325C275.889 668.163 254.692 668.713 247.212 681.271C231.875 673.163 211.837 674.978 198.198 685.701C189.482 671.706 167.485 668.569 155.217 679.582C147.727 656.503 128.075 637.141 104.273 632.46C80.4708 627.769 53.6957 639.409 42.9432 661.165C29.8355 650.278 8.40771 651.349 -3.55132 663.492C-7.23845 646.851 -19.2168 632.257 -34.8243 625.385C-50.4319 618.512 -69.2729 619.526 -84.0504 628.049C-88.0078 612.374 -101.984 599.72 -117.978 597.345C-131.105 595.386 -144.956 599.778 -157.581 595.685C-167.368 592.519 -174.877 584.739 -183.728 579.489C-192.579 574.238 -205.175 572.105 -212.289 579.547C-214.702 582.066 -214.741 587.809 -211.256 587.548V770.5H553.823L560 558.264Z" fill="white"/>
  </g>
  <defs>
    <linearGradient id="paint0_linear_564_3230" x1="29.3258" y1="418.333" x2="29.3258" y2="292.711" gradientUnits="userSpaceOnUse">
      <stop offset="0.3423" stop-color="#86B3F7"/>
      <stop offset="0.7603" stop-color="#D9F8FF"/>
    </linearGradient>
    <linearGradient id="paint1_linear_564_3230" x1="354.77" y1="424.337" x2="354.77" y2="279.904" gradientUnits="userSpaceOnUse">
      <stop offset="0.3423" stop-color="#86C8F7"/>
      <stop offset="0.7603" stop-color="#D9EFFF"/>
    </linearGradient>
    <linearGradient id="paint2_linear_564_3230" x1="177.857" y1="541.93" x2="177.857" y2="383.961" gradientUnits="userSpaceOnUse">
      <stop offset="0.3423" stop-color="#86C8F7"/>
      <stop offset="0.7603" stop-color="#D9F4FF"/>
    </linearGradient>
    <linearGradient id="paint3_linear_564_3230" x1="276.063" y1="196.08" x2="281.035" y2="196.08" gradientUnits="userSpaceOnUse">
      <stop offset="0.2979" stop-color="#FED285"/>
      <stop offset="0.7742" stop-color="#CC9D49"/>
    </linearGradient>
    <linearGradient id="paint4_linear_564_3230" x1="262.31" y1="156.2" x2="332.513" y2="267.31" gradientUnits="userSpaceOnUse">
      <stop offset="0.2026" stop-color="#662724"/>
      <stop offset="0.764" stop-color="#2E0C0B"/>
    </linearGradient>
    <linearGradient id="paint5_linear_564_3230" x1="102.652" y1="199.081" x2="97.6809" y2="199.081" gradientUnits="userSpaceOnUse">
      <stop offset="0.2979" stop-color="#FED285"/>
      <stop offset="0.7742" stop-color="#CC9D49"/>
    </linearGradient>
    <linearGradient id="paint6_linear_564_3230" x1="134.62" y1="258.202" x2="204.824" y2="369.312" gradientUnits="userSpaceOnUse">
      <stop offset="0.2026" stop-color="#662724"/>
      <stop offset="0.764" stop-color="#2E0C0B"/>
    </linearGradient>
    <linearGradient id="paint7_linear_564_3230" x1="185.152" y1="848.416" x2="185.152" y2="407.179" gradientUnits="userSpaceOnUse">
      <stop offset="0.234375" stop-color="#86BAF7"/>
      <stop offset="0.645833" stop-color="#D9EFFF"/>
      <stop offset="0.812893" stop-color="#D9EFFF"/>
    </linearGradient>
  </defs>
</svg>
