<svg width="40" height="40" viewBox="0 0 40 40" fill="none" xmlns="http://www.w3.org/2000/svg">
  <circle opacity="0.6" cx="20" cy="20" r="20" fill="white"/>
  <path d="M22.848 26.4767C22.8473 25.983 22.9795 25.4983 23.2305 25.0731L16.9216 21.3987C16.6775 21.8179 16.328 22.1655 15.9075 22.4072C15.487 22.6489 15.0104 22.7761 14.5254 22.776C13.7894 22.7757 13.0833 22.4832 12.5629 21.9628C12.0425 21.4424 11.7503 20.7365 11.75 20.0005C11.7503 19.2647 12.043 18.559 12.5634 18.0388C13.0839 17.5186 13.7895 17.2262 14.5254 17.2262C15.0106 17.226 15.4873 17.353 15.908 17.5947C16.3287 17.8364 16.6784 18.1842 16.9227 18.6034L23.2262 14.9236C22.9781 14.4995 22.8473 14.0168 22.848 13.5254C22.8481 13.1608 22.9203 12.7997 23.0599 12.4629C23.1996 12.1261 23.404 11.8201 23.6619 11.5623C23.9198 11.3046 24.2261 11.1003 24.563 10.9609C24.8999 10.8215 25.2609 10.7499 25.6255 10.75C25.99 10.75 26.3508 10.8217 26.6875 10.9612C27.0242 11.1006 27.3299 11.3052 27.5875 11.5629C27.8452 11.8206 28.0496 12.1267 28.189 12.4635C28.3284 12.8002 28.4 13.161 28.3999 13.5254C28.4 13.8898 28.3284 14.2505 28.189 14.5871C28.0496 14.9238 27.8452 15.2298 27.5875 15.4874C27.3299 15.7451 27.0242 15.9493 26.6875 16.0886C26.3509 16.228 25.9899 16.2997 25.6255 16.2995C25.1402 16.2998 24.6634 16.173 24.2424 15.9315C23.8214 15.6901 23.471 15.3427 23.2262 14.9236L16.9227 18.6034C17.17 19.0274 17.3003 19.5097 17.2998 20.0005C17.3006 20.4916 17.1698 20.974 16.9216 21.3977L23.2305 25.0721C23.4749 24.6538 23.8248 24.3069 24.2451 24.066C24.6654 23.8252 25.1411 23.6986 25.6255 23.6991C25.99 23.6991 26.3513 23.771 26.688 23.9106C27.0248 24.0501 27.3304 24.2547 27.5881 24.5126C27.8457 24.7704 28.0503 25.0766 28.1895 25.4134C28.3288 25.7503 28.4002 26.1111 28.3999 26.4756C28.3999 27.2114 28.1078 27.9171 27.5875 28.4374C27.0673 28.9577 26.3613 29.25 25.6255 29.25C24.8895 29.2503 24.1838 28.9582 23.663 28.4382C23.1422 27.9182 22.8488 27.2127 22.848 26.4767V26.4767Z" stroke="#222222" stroke-width="1.3" stroke-linecap="round"/>
</svg>
