<svg width="80" height="80" viewBox="0 0 80 80" fill="none" xmlns="http://www.w3.org/2000/svg">
  <circle cx="40" cy="40" r="40" fill="white"/>
  <path d="M48.7023 22.5566C45.1547 22.5566 41.9795 24.2814 39.9999 26.9274C38.0203 24.2814 34.8451 22.5566 31.2975 22.5566C25.2803 22.5566 20.3999 27.4566 20.3999 33.513C20.3999 35.8454 20.7723 38.0014 21.4191 40.0006C24.5159 49.8006 34.0611 55.661 38.7847 57.2682C39.4511 57.5034 40.5487 57.5034 41.2151 57.2682C45.9387 55.661 55.4839 49.8006 58.5807 40.0006C59.2275 38.0014 59.5999 35.8454 59.5999 33.513C59.5999 27.4566 54.7195 22.5566 48.7023 22.5566Z" fill="#FC6E64"/>
</svg>
