<svg width="360" height="75" viewBox="0 0 360 75" fill="none" xmlns="http://www.w3.org/2000/svg">
<path d="M45.1134 55.163L29.9629 57.2968L29.8072 56.1069L34.0563 55.054L32.1295 40.3296L16.4839 42.5331L18.4107 57.2576L22.7766 57.0971L22.9323 58.287L7.73231 60.4277L7.57661 59.2379L11.8257 58.185L7.92011 28.3395L3.55423 28.4999L3.39853 27.3101L18.5985 25.1693L18.7542 26.3592L14.5051 27.412L16.2503 40.7483L31.8959 38.5448L30.1507 25.2085L25.7848 25.369L25.6291 24.1791L40.7796 22.0453L40.9353 23.2352L36.6862 24.288L40.5918 54.1336L44.9577 53.9731L45.1134 55.163Z" fill="#0851A4"/>
<path d="M73.5632 49.0879C71.4768 51.7218 68.428 53.2507 64.4171 53.6748C60.4061 54.0988 57.1234 53.2392 54.5691 51.096C52.0147 48.9527 50.5572 46.0399 50.1966 42.3575C49.8359 38.6751 50.6988 35.517 52.7853 32.8831C54.8717 30.2492 57.9205 28.7203 61.9314 28.2962C65.9424 27.8722 69.2251 28.7318 71.7794 30.875C74.3338 33.0183 75.7913 35.9311 76.1519 39.6135C76.5126 43.2959 75.6497 46.454 73.5632 49.0879ZM57.108 41.6268C57.8586 49.2901 60.256 52.908 64.3001 52.4805C68.3442 52.053 69.991 48.0075 69.2404 40.3442C68.8733 36.5955 68.148 33.8063 67.0645 31.9768C65.9778 30.1141 64.3074 29.302 62.0533 29.5403C59.7992 29.7786 58.3205 30.9237 57.6172 32.9756C56.9106 34.9943 56.7409 37.8781 57.108 41.6268Z" fill="#0851A4"/>
<path d="M96.426 50.2013L83.569 51.254L83.482 50.1073L86.6985 49.5429L84.0929 15.1916L79.7959 15.3929L79.7052 14.1964L90.2825 12.1765L93.0772 49.0207L96.339 49.0546L96.426 50.2013Z" fill="#0851A4"/>
<path d="M116.379 24.4425L125.913 23.8761L125.981 25.1242L122.542 26.3303L115.674 48.9272C114.478 52.6713 113.162 55.7548 111.726 58.1775C109.985 61.1192 107.767 62.6702 105.072 62.8303C104.872 62.8421 104.655 62.8383 104.42 62.8189C103.322 62.8841 102.422 62.6037 101.72 61.9776C101.02 61.3847 100.64 60.5558 100.582 59.4907C100.525 58.4589 100.933 57.3829 101.806 56.2625C102.972 57.4287 104.204 57.9733 105.502 57.8962C107.332 57.7874 108.841 57.0132 110.031 55.5735C111.222 54.1671 112.288 52.0001 113.228 49.0725L102.389 26.8263L99.8663 26.4754L99.8086 25.4269L111.338 24.742L111.396 25.7904L108.476 26.4147L115.76 42.3105L120.446 26.4548L116.448 25.6906L116.379 24.4425Z" fill="#0851A4"/>
<path d="M154.57 44.391L154.031 15.596L149.673 15.184L149.651 14.0342L164.998 13.724L165.019 14.8738L160.68 15.4616L161.228 44.7565C161.32 49.6556 160.323 53.3599 158.236 55.8692C156.183 58.4112 153.307 59.7196 149.608 59.7944C146.942 59.8483 144.817 59.4578 143.235 58.623C141.62 57.8221 140.797 56.6052 140.766 54.9721C140.736 53.3724 141.298 52.2275 142.452 51.5373C143.079 51.1913 143.726 51.0115 144.392 50.998C145.025 50.9852 145.678 51.1221 146.35 51.4085C146.205 52.545 146.141 53.5799 146.158 54.513C146.176 55.4462 146.475 56.307 147.057 57.0954C147.606 57.9178 148.33 58.3199 149.23 58.3017C150.13 58.2836 150.86 58.1021 151.42 57.7574C152.014 57.412 152.489 56.9856 152.846 56.4783C153.204 56.0043 153.492 55.3483 153.71 54.5104C153.961 53.6719 154.146 52.9013 154.266 52.1987C154.387 51.5295 154.471 50.6443 154.517 49.5431C154.586 47.8747 154.603 46.1573 154.57 44.391Z" fill="#0851A4"/>
<path d="M195.378 44.0668C193.035 46.4556 189.846 47.6404 185.813 47.6212C181.78 47.6019 178.602 46.3867 176.279 43.9756C173.956 41.5645 172.802 38.5089 172.818 34.809C172.834 31.109 174.014 28.0646 176.358 25.6758C178.702 23.2869 181.89 22.1022 185.924 22.1214C189.957 22.1407 193.135 23.3559 195.458 25.767C197.781 28.1781 198.934 31.2336 198.918 34.9336C198.902 38.6336 197.722 41.678 195.378 44.0668ZM179.768 34.8422C179.735 42.5421 181.752 46.4018 185.818 46.4212C189.885 46.4406 191.935 42.6004 191.968 34.9004C191.985 31.1338 191.547 28.2817 190.655 26.3441C189.764 24.3731 188.185 23.3822 185.918 23.3714C183.652 23.3606 182.064 24.3363 181.155 26.2987C180.247 28.2277 179.785 31.0755 179.768 34.8422Z" fill="#0851A4"/>
<path d="M214.496 40.6358C214.432 42.6014 214.618 44.0422 215.055 44.9582C215.525 45.8753 216.493 46.3597 217.959 46.4114C219.425 46.4631 220.904 45.5981 222.396 43.8163C223.888 42.0344 224.656 40.4772 224.7 39.1446L225.157 25.1521L221.216 24.8129L221.254 23.6635L231.619 23.3788L230.861 46.5664L234.902 46.909L234.864 48.0584L224.601 48.2968L225.014 43.3082L224.514 43.2906C222.47 46.654 219.616 48.271 215.951 48.1417C210.621 47.9537 208.04 45.2944 208.208 40.1638C208.376 35.0332 208.729 29.8425 209.267 24.5915L205.576 24.2612L205.614 23.1118L215.575 22.9129C214.996 30.4304 214.636 36.3381 214.496 40.6358Z" fill="#0851A4"/>
<path d="M250.218 30.7643C250.886 29.0023 252.006 27.5355 253.575 26.3637C255.178 25.194 256.595 24.6473 257.826 24.7236C259.091 24.802 259.921 25.1707 260.317 25.8298C260.715 26.4557 260.903 26.9683 260.88 27.3676C260.801 28.732 260.246 29.6828 259.213 30.2199C258.579 29.6462 257.596 29.3181 256.265 29.2356C254.968 29.1552 253.646 29.4907 252.301 30.2422C250.957 30.9605 250.258 31.8021 250.203 32.7672L249.34 47.7924L253.814 48.3704L253.748 49.5185L239.825 48.6553L239.891 47.5072L243.199 47.4618L244.423 26.1469L240.392 25.6967L240.458 24.5485L250.67 24.6306L250.018 30.7519L250.218 30.7643Z" fill="#0851A4"/>
<path d="M284.209 50.5295L285.814 34.76C285.976 32.8 285.845 31.3494 285.421 30.408C284.997 29.4666 284.038 28.9293 282.544 28.7959C281.05 28.6626 279.515 29.4292 277.939 31.0957C276.399 32.7319 275.542 34.1948 275.369 35.4845L274.199 49.6362L277.909 50.2685L277.814 51.4146L264.468 50.2236L264.562 49.0775L267.874 49.0718L269.629 27.8442L265.561 27.2805L265.648 26.2341L275.907 26.5471L275.238 31.6076L275.736 31.652C276.769 30.071 278.087 28.9002 279.688 28.1395C281.293 27.3457 282.975 27.0272 284.734 27.1843C290.046 27.6583 292.491 30.4532 292.068 35.5691C291.763 39.2565 291.219 44.4285 290.434 51.085L293.846 51.6906L293.751 52.8367L281.699 51.7612L281.794 50.6151L284.209 50.5295Z" fill="#0851A4"/>
<path d="M318.389 38.1899C318.836 34.1478 317.652 31.959 314.839 31.6236C311.893 31.2725 309.82 33.6437 308.621 38.7373L318.104 39.8677C318.243 39.213 318.338 38.6537 318.389 38.1899ZM311.747 55.5247C308.205 55.1026 305.454 53.5997 303.492 51.0161C301.564 48.4364 300.81 45.2415 301.231 41.4314C301.651 37.6212 303.132 34.6926 305.672 32.6456C308.245 30.6026 311.302 29.7922 314.844 30.2143C318.385 30.6365 320.949 31.7142 322.535 33.4474C324.125 35.1475 324.771 37.3393 324.475 40.023C324.391 40.785 324.237 41.5723 324.013 42.3848L308.274 40.5087L308.082 42.2481C307.672 45.9589 307.825 48.8303 308.539 50.8625C309.257 52.8615 310.543 53.9714 312.397 54.1924C314.283 54.4173 316.03 54.2395 317.637 53.6589C319.28 53.0492 320.611 52.0833 321.629 50.7612C322.331 51.08 322.657 51.4712 322.606 51.9351C322.514 52.7634 321.631 53.6315 319.954 54.5394C319.134 54.9788 317.991 55.3124 316.524 55.5403C315.093 55.7391 313.501 55.7339 311.747 55.5247Z" fill="#0851A4"/>
<path d="M347.532 35.1936L356.98 36.5842L356.812 37.8227L353.214 38.3039L342.208 59.0714C340.327 62.5006 338.454 65.2571 336.589 67.3409C334.327 69.8716 331.86 70.9403 329.188 70.5472C328.991 70.518 328.778 70.47 328.552 70.403C327.464 70.2428 326.635 69.7839 326.065 69.0263C325.491 68.3017 325.276 67.4109 325.421 66.354C325.56 65.3302 326.164 64.3578 327.231 63.4368C328.153 64.819 329.257 65.6047 330.543 65.794C332.357 66.061 333.983 65.6096 335.42 64.4399C336.854 63.3033 338.308 61.3948 339.784 58.7146L333.373 34.6762L330.967 33.8168L331.109 32.7764L342.536 34.4582L342.394 35.4986L339.415 35.5149L343.544 52.5974L351.136 37.9981L347.363 36.4321L347.532 35.1936Z" fill="#0851A4"/>
</svg>
