<svg width="24" height="24" viewBox="0 0 24 24" fill="none" xmlns="http://www.w3.org/2000/svg">
  <path d="M17.5495 7.94446C17.2964 8.78145 16.9665 9.59324 16.5639 10.3695C15.2149 12.7986 13.0075 14.3222 10.8474 14.3653C11.3895 14.2935 12.2662 13.9259 12.6276 12.6816C12.7835 12.159 12.8644 11.617 12.8679 11.0717C12.8715 10.0179 12.5589 8.98715 11.9706 8.11284C11.7371 7.76628 11.4612 7.45034 11.1492 7.1724C10.4884 6.60281 10.0218 5.8412 9.81452 4.99378C9.79399 4.90548 9.77756 4.81719 9.76113 4.72684C9.70899 4.42851 9.68289 4.12621 9.68311 3.82336C9.68311 3.76792 9.68311 3.71248 9.68311 3.65704C9.70156 2.96503 9.86052 2.28401 10.1503 1.65534C10.4401 1.02667 10.8547 0.463481 11.3689 0C11.0779 0.411565 10.9039 0.894377 10.8656 1.397C10.8272 1.89963 10.926 2.40323 11.1513 2.85417C11.3367 3.23365 11.6139 3.56084 11.9578 3.80609C12.3016 4.05135 12.7013 4.20691 13.1204 4.25867L13.2662 4.27099C14.1985 4.36545 15.1533 4.48865 15.8966 5.01431C16.796 5.65085 17.5126 7.88286 17.5495 7.94446Z" fill="#E02C2A"/>
  <path d="M20.9732 13.0057C20.8771 14.077 20.656 15.1332 20.3143 16.153C11.9376 17.3544 9.3218 15.4612 8.82544 13.4582C8.99102 13.7371 9.22581 13.9686 9.50708 14.1302C9.78834 14.2918 10.1066 14.3781 10.4309 14.3806C10.5044 14.3802 10.5778 14.3751 10.6506 14.3653C12.9611 14.3191 15.3111 12.1075 16.6421 10.0627C17.301 9.04581 17.7402 7.29536 17.7402 7.29536C17.7205 6.95054 18.1158 6.32459 18.353 6.05225C18.7681 5.57566 20.1605 4.73447 20.4131 4.86625C20.1077 5.0462 19.8548 5.3032 19.6798 5.61154C19.5048 5.91988 19.4139 6.26876 19.416 6.62329C19.4128 6.95392 19.4881 7.28059 19.6356 7.57649C19.6795 7.66079 19.7286 7.74221 19.7828 7.82028C19.9299 8.06406 20.0639 8.31664 20.1869 8.5758C20.8207 9.96178 21.0913 11.4863 20.9732 13.0057Z" fill="#E75036"/>
  <path d="M20.3428 16.0961C18.5858 21.409 14.1558 21.7867 12.2824 21.9229C10.2091 20.1351 6.83995 17.2404 8.52232 12.3756C8.52134 12.7576 8.62625 13.1324 8.82541 13.4584C9.52163 14.8991 11.9507 17.2975 20.3428 16.0961Z" fill="#E5683C"/>
  <path d="M12.3284 21.9181C10.3122 22.0038 3.78037 20.7519 3.02485 14.3563C2.86452 12.8364 3.64201 9.96367 5.52863 8.65907C6.10477 8.25928 6.81172 8.09433 7.5053 8.19784C8.21206 8.2971 8.88839 8.55036 9.4865 8.93974C10.0846 9.32912 10.5899 9.84511 10.9667 10.4512H10.9249C10.7644 10.4044 10.598 10.3808 10.4308 10.381C10.2827 10.3803 10.1352 10.398 9.99151 10.4337C9.71135 10.4807 9.44824 10.5998 9.22799 10.7792C9.00774 10.9587 8.83793 11.1923 8.73523 11.4572C8.73302 11.4628 8.73302 11.4691 8.73523 11.4747C8.59294 11.7576 8.51778 12.0695 8.5156 12.3862C7.65904 16.8996 10.2551 20.1304 12.3284 21.9181Z" fill="#EA7E48"/>
</svg>
