<svg width="24" height="24" viewBox="0 0 24 24" fill="none" xmlns="http://www.w3.org/2000/svg">
  <path d="M12.0247 2.92883C8.72343 2.92883 6.04055 5.61324 6.04055 8.91635V11.8003C6.04055 12.4091 5.78124 13.3371 5.47206 13.8561L4.3251 15.7621C3.61698 16.9396 4.10569 18.2469 5.40224 18.686C9.70083 20.123 14.3385 20.123 18.6371 18.686C19.8439 18.2868 20.3725 16.8598 19.7142 15.7621L18.5673 13.8561C18.2681 13.3371 18.0088 12.4091 18.0088 11.8003V8.91635C18.0088 5.62322 15.3159 2.92883 12.0247 2.92883Z" stroke="#222222" stroke-width="1.3" stroke-miterlimit="10" stroke-linecap="round"/>
  <path d="M13.8699 3.21832C13.5607 3.1285 13.2416 3.05865 12.9124 3.01873C11.955 2.89898 11.0374 2.96884 10.1797 3.21832C10.4689 2.47986 11.187 1.96094 12.0248 1.96094C12.8626 1.96094 13.5807 2.47986 13.8699 3.21832Z" stroke="#222222" stroke-width="1.3" stroke-miterlimit="10" stroke-linecap="round" stroke-linejoin="round"/>
  <path d="M15.0163 19.0454C15.0163 20.692 13.6699 22.0392 12.0243 22.0392C11.2065 22.0392 10.4485 21.6999 9.9099 21.161C9.37133 20.6221 9.03223 19.8637 9.03223 19.0454" stroke="#222222" stroke-width="1.3" stroke-miterlimit="10"/>
</svg>
