<svg width="380" height="186" viewBox="0 0 380 186" fill="none" xmlns="http://www.w3.org/2000/svg">
<path d="M0 42C0 33.1634 7.16344 26 16 26H364C372.837 26 380 33.1634 380 42V186H0V42Z" fill="#0762C8"/>
<g clip-path="url(#clip0_1894_16357)">
<path d="M255.915 156.06V67.364C255.915 49.9979 249.485 34.1666 238.925 22.2211L236.69 20.5912L235.076 18.2133C223.91 7.5136 209.096 0.741998 192.746 0.0571289L189.953 0.316107L187.25 0.0571289C185.86 0.115511 184.48 0.21768 183.113 0.362887C183.113 0.362887 180.66 0.794392 179.442 0.994988C148.065 6.16594 124.986 34.7598 124.986 68.2858L124.793 156.06L189.999 162.187L255.915 156.06Z" fill="#FFE07D"/>
<path d="M183.43 0.333008C169.917 2.818 157.829 9.53196 148.517 19.0939C136.59 31.3392 129.211 48.2626 129.211 66.9487V156.06L126.414 157.982L124.084 156.06V67.3641C124.084 49.9999 130.515 34.1685 141.074 22.2211L142.939 21.3521L144.923 18.2137C155.214 8.35571 168.6 1.82924 183.43 0.333008Z" fill="#FFD064"/>
<path d="M192.746 0.0572596V26.287C191.838 26.2271 190.923 26.1972 190 26.1972C189.077 26.1972 188.162 26.2271 187.254 26.287L187.251 0.0576338C188.163 0.0202093 189.081 0 190 0C190.919 0 191.835 0.0202093 192.746 0.0572596Z" fill="#FFD064"/>
<path d="M238.926 22.2212L216.169 45.482C215.63 46.0284 214.927 46.3016 214.224 46.3016C213.521 46.3016 212.818 46.0284 212.283 45.482C211.21 44.3855 211.21 42.6078 212.283 41.5113L235.076 18.2134C236.413 19.4933 237.699 20.829 238.926 22.2212Z" fill="#FFD064"/>
<path d="M166.058 43.7865C165.523 44.3329 164.82 44.6061 164.117 44.6061C163.414 44.6061 162.711 44.3329 162.173 43.7865L141.076 22.2225C143.742 21.4946 144.187 20.7705 144.925 18.2144L166.058 39.8158C167.131 40.9123 167.131 42.69 166.058 43.7865Z" fill="#FFD064"/>
<path d="M147.173 20.5124C145.917 21.8821 144.716 23.3042 143.574 24.775L141.074 22.2212C141.38 21.9431 141.339 21.732 144.924 18.2134L147.173 20.5124Z" fill="#FFC250"/>
<path d="M190 24.8354C166.595 24.8354 147.622 44.2255 147.622 68.1443V153.68H232.377V68.1446C232.377 44.2259 213.404 24.8354 190 24.8354Z" fill="#AB7B64"/>
<path d="M233.923 66.0621C233.742 61.3339 232.992 56.4062 231.034 51.2716C227.802 42.671 222.056 35.3433 214.716 30.2296L209.225 26.9714C204.195 24.4655 198.627 22.912 192.745 22.5415H187.252C185.387 22.659 183.554 22.8955 181.759 23.2436L176.265 24.6923C174.374 25.3278 172.54 26.0908 170.773 26.9714L165.281 30.2296C157.942 35.3433 152.197 42.671 148.965 51.2716C147.239 55.9961 146.052 61.1457 146.056 67.3641V85.7022V150.072V156.06L183.43 159.576L233.943 156.06V150.072L236.304 113.209L233.943 67.3641C233.943 66.9285 233.935 66.4948 233.923 66.0621ZM226.985 150.072H153.013C152.407 150.072 151.915 149.57 151.915 148.95V85.1213C151.915 84.7651 152.079 84.4282 152.362 84.2205C154.305 82.7935 155.577 80.4702 155.577 77.843V73.9041C155.577 73.5478 155.741 73.2102 156.024 73.0025C157.971 71.5755 159.239 69.2447 159.239 66.6157V59.1307C159.239 56.4193 157.886 54.0287 155.836 52.6162C155.392 52.3105 155.248 51.7139 155.472 51.2173C161.493 37.8897 174.54 28.5309 189.781 28.4434C205.218 28.3543 218.567 37.6999 224.622 51.1563C224.848 51.6578 224.698 52.2596 224.247 52.562C222.15 53.9661 220.76 56.383 220.76 59.1307V66.6157C220.76 69.2444 222.028 71.5751 223.974 72.9992C224.257 73.2069 224.422 73.5444 224.422 73.9011V77.843C224.422 80.4698 225.694 82.7935 227.637 84.2205C227.92 84.4282 228.084 84.7654 228.084 85.1217V148.95C228.084 149.57 227.592 150.072 226.985 150.072Z" fill="#9A6A53"/>
<path d="M239.436 79.3398V156.06L236.69 157.506L233.943 156.06V79.3398H239.436Z" fill="#FFD064"/>
<path d="M192.746 24.2046V85.1407C192.746 86.6901 191.515 87.9475 189.999 87.9475C188.483 87.9475 187.253 86.6901 187.253 85.1407V24.2046C188.161 24.1447 189.077 24.1147 189.999 24.1147C190.922 24.1147 191.838 24.1447 192.746 24.2046Z" fill="#9A6A53"/>
<path d="M189.999 165.891C188.482 165.891 187.253 164.635 187.253 163.085V110.402C187.253 108.852 188.482 107.595 189.999 107.595C191.517 107.595 192.746 108.852 192.746 110.402V163.085C192.746 164.635 191.517 165.891 189.999 165.891Z" fill="#9A6A53"/>
<path d="M259.578 156.061H120.423C120.423 156.061 119.108 156.675 118.358 157.068C116.582 157.998 115.662 159.495 115.662 161.674L115.818 170.533L264.026 171.03L265.071 165.417V161.674C265.071 158.574 262.611 156.061 259.578 156.061Z" fill="#AB7B64"/>
<path d="M265.071 165.417V171.03L194.418 173.973L114.93 171.03V161.674C114.93 158.575 117.391 156.061 120.423 156.061V163.92C120.423 164.746 121.079 165.417 121.887 165.417H265.071Z" fill="#9A6A53"/>
<path d="M190 113.209C182.428 113.209 176.268 106.914 176.268 99.1752C176.268 95.8014 177.438 92.7019 179.387 90.2787C179.387 90.2787 179.653 90.1933 179.73 90.1028C182.25 87.126 185.855 85.4756 190 85.4756C194.004 85.4756 197.437 87.1634 199.95 89.9665C200.117 90.1533 200.613 90.279 200.613 90.279C202.562 92.7019 203.732 95.8014 203.732 99.1752C203.732 106.914 197.572 113.209 190 113.209ZM190 90.3325C186.423 90.3325 183.259 92.5964 182.123 95.8587C182.034 96.1135 182.004 97.1389 182.004 97.1389C181.845 97.7913 181.761 98.4731 181.761 99.1752C181.761 103.818 185.457 107.596 190 107.596C194.543 107.596 198.239 103.818 198.239 99.1752C198.239 98.4731 198.155 97.7913 197.996 97.1389C197.996 97.1389 198.166 96.4118 198.105 96.2213C197.026 92.855 193.65 90.3325 190 90.3325Z" fill="#FFD064"/>
<path d="M200.613 90.2783C200.554 92.9017 199.577 95.2932 197.996 97.1386C197.106 93.4747 193.856 90.7543 190 90.7543C186.144 90.7543 182.894 93.4747 182.004 97.1386C180.422 95.2935 179.445 92.9017 179.387 90.2783C181.906 87.1421 185.73 85.1406 190 85.1406C194.27 85.1406 198.094 87.1421 200.613 90.2783Z" fill="#FFC250"/>
<path d="M190 95.6197C186.966 95.6197 184.507 93.1063 184.507 90.006V86.2636C184.507 83.1633 186.966 80.6499 190 80.6499C193.033 80.6499 195.493 83.1633 195.493 86.2636V90.006C195.493 93.1063 193.033 95.6197 190 95.6197Z" fill="#FFE07D"/>
<path d="M257.38 79.34H232.478C231.467 79.34 230.647 78.502 230.647 77.4687V68.4868L244.929 67.0815L259.577 68.4868V74.4748L259.211 77.4687C259.211 78.502 258.391 79.34 257.38 79.34Z" fill="#FFD064"/>
<path d="M259.577 74.475V77.8432C259.577 78.8761 258.757 79.7144 257.746 79.7144H232.112C231.102 79.7144 230.281 78.8761 230.281 77.8432V68.4871L232.502 67.7188L235.408 68.4871V73.3523C235.408 73.9735 235.899 74.475 236.507 74.475H259.577Z" fill="#FFC250"/>
<path d="M261.042 68.1129H228.816C227.805 68.1129 226.985 67.2749 226.985 66.2417V59.5052C226.985 58.4719 227.805 57.634 228.816 57.634L231.746 57.2598H261.408C262.419 57.2598 263.239 58.0977 263.239 59.131V63.2477L262.873 66.2417C262.873 67.2749 262.053 68.1129 261.042 68.1129Z" fill="#FFD064"/>
<path d="M263.239 63.2477V66.6159C263.239 67.6488 262.419 68.4871 261.408 68.4871H228.45C227.439 68.4871 226.619 67.6488 226.619 66.6159V59.131C226.619 58.0981 227.439 57.2598 228.45 57.2598H231.746V62.125C231.746 62.7462 232.237 63.2477 232.844 63.2477H263.239Z" fill="#FFC250"/>
<path d="M147.52 79.34H122.619C121.608 79.34 120.788 78.502 120.788 77.4687V68.4868L135.07 67.0815L149.718 68.4868V74.4748L149.351 77.4687C149.351 78.502 148.532 79.34 147.52 79.34Z" fill="#FFD064"/>
<path d="M149.718 74.475V77.8432C149.718 78.8761 148.897 79.7144 147.887 79.7144H122.253C121.242 79.7144 120.422 78.8761 120.422 77.8432V68.4871L122.642 67.7188L125.549 68.4871V73.3523C125.549 73.9735 126.039 74.475 126.647 74.475H149.718Z" fill="#FFC250"/>
<path d="M151.183 68.1129H118.958C117.947 68.1129 117.127 67.2749 117.127 66.2417V59.5052C117.127 58.4719 117.947 57.634 118.958 57.634L121.888 57.2598H151.549C152.561 57.2598 153.38 58.0977 153.38 59.131V63.2477L153.014 66.2417C153.014 67.2749 152.194 68.1129 151.183 68.1129Z" fill="#FFD064"/>
<path d="M153.38 63.2477V66.6159C153.38 67.6488 152.56 68.4871 151.549 68.4871H118.592C117.581 68.4871 116.761 67.6488 116.761 66.6159V59.131C116.761 58.0981 117.581 57.2598 118.592 57.2598H121.888V62.125C121.888 62.7462 122.378 63.2477 122.986 63.2477H153.38Z" fill="#FFC250"/>
<path d="M268.732 171.03H111.267C111.267 171.03 110.836 171.189 110.624 171.225C107.996 171.683 106.483 174.726 106.483 177.595L106.343 183.615C106.343 184.648 107.163 185.486 108.174 185.486L271.926 185.613C272.937 185.613 273.757 184.776 273.757 183.742L274.225 180.386V176.644C274.225 173.544 271.765 171.03 268.732 171.03Z" fill="#AB7B64"/>
<path d="M274.225 180.386V184.129C274.225 185.162 273.405 186 272.394 186H107.605C106.594 186 105.774 185.162 105.774 184.129V176.644C105.774 173.545 108.235 171.03 111.267 171.03V178.515C111.267 179.548 112.087 180.386 113.098 180.386H274.225Z" fill="#9A6A53"/>
</g>
<path d="M323.572 106.529L309.39 121.563L305.482 120.839H304.901C304.901 120.839 303.986 119.567 302.052 117.039C293.087 105.331 283.794 93.8862 274.937 82.0912C274.937 82.0912 280.874 76.7409 285.657 78.1798C290.432 79.6267 292.024 82.0912 292.024 82.0912C292.024 82.0912 297.667 76.884 305.195 81.6539C312.724 86.4239 312.868 95.6776 312.868 95.6776C312.868 95.6776 322.275 96.9416 323.453 104.836C323.532 105.384 323.572 105.933 323.572 106.529Z" fill="#F4F0CB"/>
<path opacity="0.21" d="M323.572 106.529L309.39 121.563L305.482 120.839H304.901C304.901 120.839 303.986 119.567 302.052 117.039L323.453 104.836C323.532 105.384 323.572 105.933 323.572 106.529Z" fill="#BCB46D"/>
<path d="M369.454 150.635C369.199 151.955 368.634 153.187 367.655 154.173C367.512 154.316 367.36 154.459 367.209 154.586C366.087 155.572 364.678 156.279 363.206 156.621C362.124 156.876 361.001 156.923 359.927 156.74C359.863 157.655 359.728 158.561 359.505 159.459C359.29 160.381 358.988 161.288 358.614 162.154C358.502 162.417 358.383 162.671 358.248 162.925C357.977 163.434 357.651 163.911 357.229 164.309C356.608 164.873 355.844 165.223 355.032 165.454C354.786 165.517 354.539 165.581 354.292 165.628C350.162 166.439 345.187 165.175 342.243 162.17C341.638 163.204 340.778 164.038 339.768 164.651C339.25 164.969 338.701 165.223 338.12 165.422C336.409 166.018 334.483 166.105 332.74 165.613C329.254 164.627 326.524 161.717 325.108 158.378C323.428 159.626 321.487 160.596 319.417 160.803C317.332 160.994 314.96 160.246 313.584 158.688C314.682 157.694 315.788 156.709 316.894 155.715C318.478 154.3 320.11 152.996 321.67 151.629C322.999 150.468 324.272 149.26 325.418 147.9C317.443 148.624 309.318 145.221 303.866 139.354C303.325 138.782 302.815 138.185 302.33 137.557C302.155 137.327 301.98 137.096 301.805 136.858C301.765 136.802 301.725 136.754 301.693 136.699C301.47 136.389 301.256 136.071 301.041 135.753C300.969 135.649 300.897 135.538 300.826 135.435C300.619 135.125 300.42 134.807 300.213 134.497C300.141 134.385 300.07 134.266 299.998 134.155C299.823 133.884 299.648 133.614 299.465 133.344C299.393 133.233 299.322 133.121 299.242 133.01C299.067 132.74 298.884 132.477 298.693 132.215C298.613 132.104 298.542 131.992 298.454 131.889C298.319 131.698 298.183 131.515 298.04 131.332C297.984 131.261 297.921 131.181 297.857 131.11C297.778 130.999 297.69 130.895 297.602 130.792C297.427 130.585 297.244 130.386 297.069 130.188C296.894 130.005 296.719 129.83 296.544 129.663C295.47 128.614 294.228 127.763 292.811 127.302C292.318 127.143 291.793 127.04 291.259 127C289.516 126.865 287.702 127.389 286.548 128.661C286.548 128.661 286.635 125.783 287.996 122.786C288.84 120.91 290.185 118.994 292.31 117.698C296.273 115.29 299.409 117.786 303.341 118.748C304.893 119.137 306.572 119.28 308.482 118.788C312.175 117.834 317.953 112.157 323.516 105.432C328.092 99.8905 332.525 93.6419 335.526 88.7448C339.163 82.7744 345.374 70.0419 348.501 64C353.55 66.7185 359.752 72.7673 358.937 78.9083C358.181 84.6481 352.454 88.9594 352.454 88.9594C352.454 88.9594 360.707 95.5817 356.369 104.796C352.024 114.018 341.924 114.129 341.924 114.129C341.924 114.129 351.268 119.113 344.853 126.38C338.566 133.511 327.678 128.526 327.272 128.335C329 131.714 332.087 134.202 335.223 136.317C338.367 138.432 341.877 139.942 345.442 141.238C350.528 143.075 355.773 144.482 361.097 145.436C362.784 145.738 364.479 146 366.183 146.207C367.249 146.342 368.323 146.461 369.398 146.557C369.645 147.916 369.7 149.323 369.454 150.635Z" fill="#F4F0CB"/>
<path d="M291.268 126.992C289.525 126.857 287.703 127.381 286.557 128.653C286.557 128.653 286.644 125.776 288.005 122.771C289.342 122.993 290.56 123.923 291.077 125.187C291.308 125.752 291.411 126.396 291.268 126.992Z" fill="#FFD965"/>
<path d="M294.642 122.524C295.42 122.524 296.051 121.894 296.051 121.117C296.051 120.34 295.42 119.71 294.642 119.71C293.864 119.71 293.233 120.34 293.233 121.117C293.233 121.894 293.864 122.524 294.642 122.524Z" fill="#3A1B1A"/>
<path opacity="0.21" d="M335.526 145.937L321.67 151.621C322.999 150.468 324.272 149.252 325.418 147.892L335.526 145.937Z" fill="#FEA485"/>
<path d="M276.827 131.063L278.663 128.364L275.591 126.274L273.755 128.973C273.59 129.216 273.649 129.543 273.886 129.705L276.099 131.21C276.336 131.371 276.662 131.306 276.827 131.063Z" fill="#FFF0AF"/>
<path d="M271.248 127.268L273.084 124.569L270.012 122.479L268.176 125.178C268.011 125.421 268.07 125.749 268.307 125.91L270.519 127.415C270.757 127.577 271.083 127.511 271.248 127.268Z" fill="#FFF0AF"/>
<path d="M280.478 125.696L278.618 128.43L269.967 122.545L271.826 119.811L280.478 125.696Z" fill="#FFC861"/>
<path d="M290.672 132.508L292.505 129.813L292.412 129.496L272.769 116.134C271.92 115.557 270.765 115.777 270.188 116.626C269.611 117.474 269.831 118.63 270.679 119.207L290.322 132.568L290.672 132.508Z" fill="#FFE07D"/>
<path d="M271.541 117.937L291.184 131.299L291.277 131.617L292.504 129.813L292.411 129.496L272.768 116.134C271.919 115.557 270.764 115.777 270.187 116.626C269.957 116.963 269.856 117.349 269.868 117.727C270.408 117.533 271.03 117.59 271.541 117.937Z" fill="#FFC861"/>
<path d="M293.967 136.099L294.838 135.743L297.061 132.475L297.058 131.525L296.897 131.318L293.96 129.32C293.413 128.949 292.669 129.09 292.297 129.637L290.411 132.41C290.039 132.957 290.18 133.702 290.727 134.073L293.665 136.072L293.967 136.099Z" fill="#FFC861"/>
<path d="M292.344 131.697L295.93 134.137L297.061 132.475L297.058 131.525L296.897 131.318L293.96 129.32C293.413 128.949 292.669 129.09 292.297 129.637L290.68 132.014C291.052 131.467 291.797 131.325 292.344 131.697Z" fill="#EBB044"/>
<path d="M299.347 143.297C299.894 142.79 300.735 142.791 301.284 143.296C301.509 143.502 301.758 143.69 302.03 143.854C304.003 145.046 306.599 144.576 308.025 142.764C309.698 140.641 309.198 137.585 307.002 136.091C306.8 135.953 306.591 135.834 306.377 135.733C305.714 135.419 305.435 134.642 305.702 133.959C306.48 131.966 305.79 129.603 303.868 128.385C301.818 127.087 299.066 127.625 297.655 129.599C297.122 130.343 296.844 131.19 296.8 132.037C296.785 132.324 296.687 132.6 296.526 132.837L294.936 135.174C294.774 135.412 294.551 135.605 294.289 135.724C293.645 136.018 293.062 136.462 292.601 137.047C290.928 139.171 291.427 142.227 293.624 143.721C295.443 144.959 297.815 144.715 299.347 143.297ZM297.053 137.811C297.29 137.58 297.504 137.325 297.692 137.049L299.282 134.712C299.472 134.432 299.632 134.136 299.76 133.827C300.328 132.46 302.315 132.938 302.274 134.333C302.237 135.555 302.675 136.748 303.482 137.649C304.471 138.752 303.345 140.39 301.97 139.887C300.832 139.471 299.564 139.5 298.446 139.972C297.161 140.515 295.989 138.845 297.053 137.811Z" fill="#FFE07D"/>
<path d="M301.785 129.812C303.707 131.029 304.397 133.393 303.619 135.385C303.352 136.068 303.631 136.846 304.294 137.159C304.508 137.261 304.717 137.38 304.919 137.517C307.115 139.011 307.615 142.067 305.942 144.191C305.921 144.218 305.899 144.243 305.877 144.27C306.703 143.994 307.457 143.486 308.025 142.764C309.698 140.641 309.198 137.585 307.002 136.091C306.8 135.953 306.591 135.834 306.377 135.733C305.714 135.419 305.435 134.641 305.702 133.959C306.48 131.966 305.79 129.603 303.868 128.385C301.908 127.144 299.308 127.582 297.85 129.348C299.127 128.92 300.578 129.047 301.785 129.812Z" fill="#FFC861"/>
<path d="M333.322 40.3598L331.207 40.0378C331.045 40.0161 330.891 39.9559 330.758 39.8623C330.625 39.7687 330.516 39.6445 330.44 39.5001L329.497 37.5681C329.413 37.3976 329.283 37.254 329.122 37.1536C328.96 37.0532 328.774 37 328.584 37C328.394 37 328.208 37.0532 328.046 37.1536C327.885 37.254 327.755 37.3976 327.671 37.5681L326.724 39.5001C326.651 39.6475 326.543 39.7749 326.409 39.8714C326.276 39.9679 326.121 40.0305 325.958 40.0539L323.846 40.3759C323.662 40.4073 323.491 40.4885 323.35 40.6107C323.21 40.7328 323.105 40.8912 323.048 41.0685C322.992 41.2458 322.985 41.4354 323.028 41.6164C323.072 41.7975 323.164 41.9632 323.295 42.0954L324.825 43.5862C324.942 43.7019 325.03 43.8443 325.081 44.0012C325.132 44.1582 325.145 44.3251 325.118 44.4878L324.744 46.5841C324.712 46.7712 324.732 46.9637 324.803 47.1398C324.875 47.3158 324.994 47.4685 325.147 47.5804C325.301 47.6923 325.482 47.759 325.672 47.773C325.861 47.787 326.051 47.7477 326.219 47.6595L328.125 46.671C328.271 46.5932 328.433 46.5525 328.598 46.5525C328.764 46.5525 328.926 46.5932 329.072 46.671L330.965 47.666C331.133 47.7503 331.322 47.7863 331.509 47.77C331.697 47.7536 331.876 47.6856 332.027 47.5735C332.178 47.4614 332.295 47.3096 332.365 47.1349C332.435 46.9602 332.456 46.7695 332.424 46.5841L332.063 44.4814C332.034 44.3186 332.046 44.1512 332.097 43.994C332.148 43.8368 332.237 43.6945 332.356 43.5798L333.886 42.0889C334.02 41.9562 334.114 41.7888 334.159 41.6054C334.203 41.4221 334.196 41.23 334.137 41.0506C334.079 40.8712 333.972 40.7116 333.828 40.5896C333.684 40.4676 333.509 40.3881 333.322 40.3598Z" fill="#F4D36F"/>
<path d="M34.3473 143.38L32.235 143.058C32.0717 143.034 31.9167 142.971 31.7833 142.874C31.6498 142.777 31.5418 142.649 31.4686 142.501L30.5219 140.569C30.4385 140.398 30.3089 140.254 30.1478 140.154C29.9867 140.053 29.8006 140 29.6107 140C29.4208 140 29.2347 140.053 29.0735 140.154C28.9124 140.254 28.7828 140.398 28.6994 140.569L27.7527 142.501C27.6795 142.649 27.5716 142.777 27.4381 142.874C27.3046 142.971 27.1496 143.034 26.9864 143.058L24.8708 143.38C24.683 143.407 24.5065 143.487 24.3614 143.609C24.2163 143.731 24.1084 143.892 24.0497 144.073C23.9911 144.253 23.9842 144.447 24.0297 144.631C24.0752 144.815 24.1714 144.983 24.3073 145.116L25.8368 146.606C25.9556 146.721 26.0445 146.864 26.0956 147.021C26.1467 147.178 26.1584 147.345 26.1299 147.508L25.7692 149.614C25.737 149.801 25.7579 149.994 25.8295 150.17C25.9011 150.346 26.0206 150.498 26.1745 150.61C26.3283 150.722 26.5104 150.788 26.7 150.801C26.8896 150.815 27.0791 150.775 27.2472 150.686L29.1373 149.691C29.2835 149.615 29.4459 149.575 29.6107 149.575C29.7755 149.575 29.9379 149.615 30.084 149.691L31.9742 150.686C32.1422 150.775 32.3318 150.815 32.5214 150.801C32.711 150.788 32.893 150.722 33.0469 150.61C33.2007 150.498 33.3202 150.346 33.3918 150.17C33.4635 149.994 33.4844 149.801 33.4521 149.614L33.0915 147.511C33.0631 147.349 33.0746 147.182 33.1251 147.025C33.1756 146.868 33.2635 146.725 33.3813 146.61L34.914 145.119C35.051 144.986 35.1479 144.818 35.1939 144.633C35.2398 144.448 35.2328 144.254 35.1737 144.072C35.1147 143.891 35.0059 143.73 34.8598 143.608C34.7136 143.485 34.5361 143.406 34.3473 143.38Z" fill="#F4D36F"/>
<path d="M81.8979 75.0761C82.0339 74.9436 82.13 74.7757 82.1756 74.5914C82.2211 74.4071 82.2141 74.2137 82.1555 74.0332C82.0969 73.8526 81.9889 73.692 81.8438 73.5696C81.6987 73.4472 81.5223 73.3678 81.3344 73.3405L79.2221 73.0346C79.0588 73.0106 78.9038 72.9474 78.7704 72.8504C78.6369 72.7533 78.5289 72.6254 78.4557 72.4775L77.5219 70.5681C77.438 70.3976 77.308 70.254 77.1467 70.1536C76.9853 70.0532 76.7991 70 76.6091 70C76.419 70 76.2328 70.0532 76.0715 70.1536C75.9101 70.254 75.7801 70.3976 75.6962 70.5681L74.7527 72.484C74.6795 72.6318 74.5716 72.7598 74.4381 72.8568C74.3046 72.9538 74.1496 73.017 73.9864 73.041L71.8708 73.3469C71.683 73.3743 71.5065 73.4537 71.3614 73.5761C71.2163 73.6985 71.1084 73.859 71.0497 74.0396C70.9911 74.2202 70.9842 74.4135 71.0297 74.5978C71.0752 74.7821 71.1714 74.95 71.3073 75.0825L72.8368 76.5734C72.9554 76.6884 73.0441 76.8307 73.0952 76.9878C73.1462 77.1449 73.1581 77.3122 73.1299 77.475L72.7692 79.5808C72.7374 79.7677 72.7585 79.9598 72.83 80.1353C72.9015 80.3109 73.0206 80.463 73.174 80.5745C73.3273 80.686 73.5087 80.7524 73.6978 80.7663C73.8868 80.7802 74.076 80.741 74.244 80.6531L76.1373 79.6581C76.2835 79.5819 76.4459 79.5421 76.6107 79.5421C76.7755 79.5421 76.9379 79.5819 77.084 79.6581L78.9742 80.6531C79.142 80.7423 79.3316 80.7825 79.5212 80.7692C79.7108 80.7559 79.8928 80.6896 80.0466 80.5778C80.2003 80.466 80.3196 80.3133 80.3907 80.137C80.4618 79.9607 80.482 79.768 80.4489 79.5808L80.0883 77.475C80.0614 77.3122 80.0739 77.1453 80.1249 76.9885C80.1759 76.8316 80.2638 76.6892 80.3813 76.5734L81.8979 75.0761Z" fill="#F4D36F"/>
<defs>
<clipPath id="clip0_1894_16357">
<rect width="182" height="186" fill="white" transform="translate(99)"/>
</clipPath>
</defs>
</svg>
