<svg width="380" height="186" viewBox="0 0 380 186" fill="none" xmlns="http://www.w3.org/2000/svg">
<path d="M0 42C0 33.1634 7.16344 26 16 26H364C372.837 26 380 33.1634 380 42V186H0V42Z" fill="#0762C8"/>
<g clip-path="url(#clip0_1894_16841)">
<path d="M255.915 156.06V67.3643C255.915 49.9982 249.485 34.1669 238.925 22.2213L236.69 20.5915L235.076 18.2135C223.91 7.51384 209.096 0.742242 192.746 0.057373L189.953 0.316351L187.25 0.057373C185.86 0.115755 184.48 0.217924 183.113 0.363132C183.113 0.363132 180.66 0.794637 179.442 0.995232C148.065 6.16618 124.986 34.76 124.986 68.2861L124.793 156.06L189.999 162.188L255.915 156.06Z" fill="#FFE07D"/>
<path d="M183.43 0.333008C169.917 2.818 157.829 9.53196 148.517 19.0939C136.59 31.3392 129.211 48.2626 129.211 66.9487V156.06L126.414 157.982L124.084 156.06V67.3641C124.084 49.9999 130.515 34.1685 141.074 22.2211L142.939 21.3521L144.923 18.2137C155.214 8.35571 168.6 1.82924 183.43 0.333008Z" fill="#FFD064"/>
<path d="M192.746 0.0572596V26.287C191.838 26.2271 190.923 26.1972 190 26.1972C189.077 26.1972 188.162 26.2271 187.254 26.287L187.251 0.0576338C188.163 0.0202093 189.081 0 190 0C190.919 0 191.835 0.0202093 192.746 0.0572596Z" fill="#FFD064"/>
<path d="M238.926 22.2212L221.001 40C220.462 40.5464 219.759 40.8196 219.056 40.8196C218.353 40.8196 217.65 40.5464 217.115 40C216.042 38.9035 216.042 37.1258 217.115 36.0293L235.077 18.2134C236.413 19.4933 237.699 20.829 238.926 22.2212Z" fill="#FFD064"/>
<path d="M162.5 40.2287C161.965 40.775 161.262 41.0483 160.559 41.0483C159.856 41.0483 159.153 40.775 158.615 40.2287L141.076 22.2228C143.742 21.4949 144.187 20.7707 144.925 18.2146L162.5 36.2579C163.573 37.3544 163.573 39.1321 162.5 40.2287Z" fill="#FFD064"/>
<path d="M147.173 20.5124C145.917 21.8821 144.716 23.3042 143.574 24.775L141.074 22.2212C141.38 21.9431 141.339 21.732 144.924 18.2134L147.173 20.5124Z" fill="#FFC250"/>
<path d="M189.378 27C165.973 27 147 46.39 147 70.3088V155.844H231.755V70.3092C231.755 46.3904 212.782 27 189.378 27Z" fill="#CAE3FF"/>
<mask id="mask0_1894_16841" style="mask-type:alpha" maskUnits="userSpaceOnUse" x="148" y="27" width="14" height="129">
<rect x="148" y="27" width="14" height="129" fill="#D9D9D9"/>
</mask>
<g mask="url(#mask0_1894_16841)">
<path d="M190.378 27C166.973 27 148 46.39 148 70.3088V155.844H232.755V70.3092C232.755 46.3904 213.782 27 190.378 27Z" fill="#AB7B64"/>
</g>
<mask id="mask1_1894_16841" style="mask-type:alpha" maskUnits="userSpaceOnUse" x="217" y="27" width="14" height="129">
<rect width="14" height="129" transform="matrix(-1 0 0 1 231 27)" fill="#D9D9D9"/>
</mask>
<g mask="url(#mask1_1894_16841)">
<path d="M188.622 27C212.027 27 231 46.39 231 70.3088V155.844H146.245V70.3092C146.245 46.3904 165.218 27 188.622 27Z" fill="#AB7B64"/>
</g>
<path d="M233.923 66.0621C233.742 61.3339 232.992 56.4062 231.034 51.2716C227.802 42.671 222.056 35.3433 214.716 30.2296L209.225 26.9714C204.195 24.4655 198.627 22.912 192.745 22.5415H187.252C185.387 22.659 183.554 22.8955 181.759 23.2436L176.265 24.6923C174.374 25.3278 172.54 26.0908 170.773 26.9714L165.281 30.2296C157.942 35.3433 152.197 42.671 148.965 51.2716C147.239 55.9961 146.052 61.1457 146.056 67.3641V85.7022V150.072V156.06L183.43 159.576L233.943 156.06V150.072L236.304 113.209L233.943 67.3641C233.943 66.9285 233.935 66.4948 233.923 66.0621ZM226.985 150.072H153.013C152.407 150.072 151.915 149.57 151.915 148.95V85.1213C151.915 84.7651 152.079 84.4282 152.362 84.2205C154.305 82.7935 155.577 80.4702 155.577 77.843V73.9041C155.577 73.5478 155.741 73.2102 156.024 73.0025C157.971 71.5755 159.239 69.2447 159.239 66.6157V59.1307C159.239 56.4193 157.886 54.0287 155.836 52.6162C155.392 52.3105 155.248 51.7139 155.472 51.2173C161.493 37.8897 174.54 28.5309 189.781 28.4434C205.218 28.3543 218.567 37.6999 224.622 51.1563C224.848 51.6578 224.698 52.2596 224.247 52.562C222.15 53.9661 220.76 56.383 220.76 59.1307V66.6157C220.76 69.2444 222.028 71.5751 223.974 72.9992C224.257 73.2069 224.422 73.5444 224.422 73.9011V77.843C224.422 80.4698 225.694 82.7935 227.637 84.2205C227.92 84.4282 228.084 84.7654 228.084 85.1217V148.95C228.084 149.57 227.592 150.072 226.985 150.072Z" fill="#9A6A53"/>
<path d="M239.436 79.3401V156.06L236.69 157.506L233.943 156.06V79.3401H239.436Z" fill="#FFD064"/>
<path d="M259.578 156.06H120.423C120.423 156.06 119.108 156.674 118.358 157.067C116.582 157.998 115.662 159.495 115.662 161.674L115.818 170.532L264.026 171.03L265.071 165.416V161.674C265.071 158.574 262.611 156.06 259.578 156.06Z" fill="#AB7B64"/>
<path d="M265.071 165.416V171.03L194.418 173.972L114.93 171.03V161.674C114.93 158.575 117.391 156.06 120.423 156.06V163.919C120.423 164.746 121.079 165.416 121.887 165.416H265.071Z" fill="#9A6A53"/>
<path d="M257.38 79.34H232.478C231.467 79.34 230.647 78.502 230.647 77.4687V68.4868L244.929 67.0815L259.577 68.4868V74.4748L259.211 77.4687C259.211 78.502 258.391 79.34 257.38 79.34Z" fill="#FFD064"/>
<path d="M259.577 74.4748V77.843C259.577 78.8759 258.757 79.7142 257.746 79.7142H232.112C231.102 79.7142 230.281 78.8759 230.281 77.843V68.4868L232.502 67.7185L235.408 68.4868V73.352C235.408 73.9733 235.899 74.4748 236.507 74.4748H259.577Z" fill="#FFC250"/>
<path d="M261.042 68.1126H228.816C227.805 68.1126 226.985 67.2747 226.985 66.2414V59.505C226.985 58.4717 227.805 57.6338 228.816 57.6338L231.746 57.2595H261.408C262.419 57.2595 263.239 58.0975 263.239 59.1307V63.2474L262.873 66.2414C262.873 67.2747 262.053 68.1126 261.042 68.1126Z" fill="#FFD064"/>
<path d="M263.239 63.2474V66.6157C263.239 67.6486 262.419 68.4869 261.408 68.4869H228.45C227.439 68.4869 226.619 67.6486 226.619 66.6157V59.1307C226.619 58.0978 227.439 57.2595 228.45 57.2595H231.746V62.1247C231.746 62.746 232.237 63.2474 232.844 63.2474H263.239Z" fill="#FFC250"/>
<path d="M147.52 79.34H122.619C121.608 79.34 120.788 78.502 120.788 77.4687V68.4868L135.07 67.0815L149.718 68.4868V74.4748L149.351 77.4687C149.351 78.502 148.532 79.34 147.52 79.34Z" fill="#FFD064"/>
<path d="M149.718 74.4748V77.843C149.718 78.8759 148.897 79.7142 147.887 79.7142H122.253C121.242 79.7142 120.422 78.8759 120.422 77.843V68.4868L122.642 67.7185L125.549 68.4868V73.352C125.549 73.9733 126.039 74.4748 126.647 74.4748H149.718Z" fill="#FFC250"/>
<path d="M151.183 68.1126H118.958C117.947 68.1126 117.127 67.2747 117.127 66.2414V59.505C117.127 58.4717 117.947 57.6338 118.958 57.6338L121.888 57.2595H151.549C152.561 57.2595 153.38 58.0975 153.38 59.1307V63.2474L153.014 66.2414C153.014 67.2747 152.194 68.1126 151.183 68.1126Z" fill="#FFD064"/>
<path d="M153.38 63.2474V66.6157C153.38 67.6486 152.56 68.4869 151.549 68.4869H118.592C117.581 68.4869 116.761 67.6486 116.761 66.6157V59.1307C116.761 58.0978 117.581 57.2595 118.592 57.2595H121.888V62.1247C121.888 62.746 122.378 63.2474 122.986 63.2474H153.38Z" fill="#FFC250"/>
<path d="M268.732 171.03H111.267C111.267 171.03 110.836 171.189 110.624 171.225C107.996 171.683 106.483 174.726 106.483 177.595L106.343 183.615C106.343 184.648 107.163 185.486 108.174 185.486L271.926 185.613C272.937 185.613 273.757 184.776 273.757 183.742L274.225 180.386V176.644C274.225 173.544 271.765 171.03 268.732 171.03Z" fill="#AB7B64"/>
<path d="M274.225 180.386V184.129C274.225 185.162 273.405 186 272.394 186H107.605C106.594 186 105.774 185.162 105.774 184.129V176.644C105.774 173.545 108.235 171.03 111.267 171.03V178.515C111.267 179.548 112.087 180.386 113.098 180.386H274.225Z" fill="#9A6A53"/>
<rect x="186.908" y="58" width="6.18182" height="37.0909" rx="3.09091" fill="#DF99A6"/>
<rect x="202.363" y="67.2727" width="6.18182" height="24.7273" rx="3.09091" transform="rotate(90 202.363 67.2727)" fill="#DF99A6"/>
<circle cx="186.909" cy="61.0909" r="3.09091" fill="#DF99A6"/>
<circle cx="190" cy="58.0001" r="3.09091" fill="#DF99A6"/>
<circle cx="193.091" cy="61.0909" r="3.09091" fill="#DF99A6"/>
<circle cx="179.182" cy="73.4547" r="3.09091" transform="rotate(-90 179.182 73.4547)" fill="#DF99A6"/>
<circle cx="176.091" cy="70.3639" r="3.09091" transform="rotate(-90 176.091 70.3639)" fill="#DF99A6"/>
<circle cx="179.182" cy="67.2729" r="3.09091" transform="rotate(-90 179.182 67.2729)" fill="#DF99A6"/>
<circle cx="3.09091" cy="3.09091" r="3.09091" transform="matrix(4.37114e-08 -1 -1 -4.37114e-08 203.909 76.5457)" fill="#DF99A6"/>
<circle cx="3.09091" cy="3.09091" r="3.09091" transform="matrix(4.37114e-08 -1 -1 -4.37114e-08 207 73.4548)" fill="#DF99A6"/>
<circle cx="3.09091" cy="3.09091" r="3.09091" transform="matrix(4.37114e-08 -1 -1 -4.37114e-08 203.909 70.3638)" fill="#DF99A6"/>
</g>
<path d="M303.322 50.3598L301.207 50.0378C301.045 50.0161 300.891 49.9559 300.758 49.8623C300.625 49.7687 300.516 49.6445 300.44 49.5001L299.497 47.5681C299.413 47.3976 299.283 47.254 299.122 47.1536C298.96 47.0532 298.774 47 298.584 47C298.394 47 298.208 47.0532 298.046 47.1536C297.885 47.254 297.755 47.3976 297.671 47.5681L296.724 49.5001C296.651 49.6475 296.543 49.7749 296.409 49.8714C296.276 49.9679 296.121 50.0305 295.958 50.0539L293.846 50.3759C293.662 50.4073 293.491 50.4885 293.35 50.6107C293.21 50.7328 293.105 50.8912 293.048 51.0685C292.992 51.2458 292.985 51.4354 293.028 51.6164C293.072 51.7975 293.164 51.9632 293.295 52.0954L294.825 53.5862C294.942 53.7019 295.03 53.8443 295.081 54.0012C295.132 54.1582 295.145 54.3251 295.118 54.4878L294.744 56.5841C294.712 56.7712 294.732 56.9637 294.803 57.1398C294.875 57.3158 294.994 57.4685 295.147 57.5804C295.301 57.6923 295.482 57.759 295.672 57.773C295.861 57.787 296.051 57.7477 296.219 57.6595L298.125 56.671C298.271 56.5932 298.433 56.5525 298.598 56.5525C298.764 56.5525 298.926 56.5932 299.072 56.671L300.965 57.666C301.133 57.7503 301.322 57.7863 301.509 57.77C301.697 57.7536 301.876 57.6856 302.027 57.5735C302.178 57.4614 302.295 57.3096 302.365 57.1349C302.435 56.9602 302.456 56.7695 302.424 56.5841L302.063 54.4814C302.034 54.3186 302.046 54.1512 302.097 53.994C302.148 53.8368 302.237 53.6945 302.356 53.5798L303.886 52.0889C304.02 51.9562 304.114 51.7888 304.159 51.6054C304.203 51.4221 304.196 51.23 304.137 51.0506C304.079 50.8712 303.972 50.7116 303.828 50.5896C303.684 50.4676 303.509 50.3881 303.322 50.3598Z" fill="#F4D36F"/>
<path d="M343.322 140.36L341.207 140.038C341.045 140.016 340.891 139.956 340.758 139.862C340.625 139.769 340.516 139.644 340.44 139.5L339.497 137.568C339.413 137.398 339.283 137.254 339.122 137.154C338.96 137.053 338.774 137 338.584 137C338.394 137 338.208 137.053 338.046 137.154C337.885 137.254 337.755 137.398 337.671 137.568L336.724 139.5C336.651 139.648 336.543 139.775 336.409 139.871C336.276 139.968 336.121 140.03 335.958 140.054L333.846 140.376C333.662 140.407 333.491 140.489 333.35 140.611C333.21 140.733 333.105 140.891 333.048 141.068C332.992 141.246 332.985 141.435 333.028 141.616C333.072 141.798 333.164 141.963 333.295 142.095L334.825 143.586C334.942 143.702 335.03 143.844 335.081 144.001C335.132 144.158 335.145 144.325 335.118 144.488L334.744 146.584C334.712 146.771 334.732 146.964 334.803 147.14C334.875 147.316 334.994 147.468 335.147 147.58C335.301 147.692 335.482 147.759 335.672 147.773C335.861 147.787 336.051 147.748 336.219 147.66L338.125 146.671C338.271 146.593 338.433 146.553 338.598 146.553C338.764 146.553 338.926 146.593 339.072 146.671L340.965 147.666C341.133 147.75 341.322 147.786 341.509 147.77C341.697 147.754 341.876 147.686 342.027 147.574C342.178 147.461 342.295 147.31 342.365 147.135C342.435 146.96 342.456 146.77 342.424 146.584L342.063 144.481C342.034 144.319 342.046 144.151 342.097 143.994C342.148 143.837 342.237 143.695 342.356 143.58L343.886 142.089C344.02 141.956 344.114 141.789 344.159 141.605C344.203 141.422 344.196 141.23 344.137 141.051C344.079 140.871 343.972 140.712 343.828 140.59C343.684 140.468 343.509 140.388 343.322 140.36Z" fill="#F4D36F"/>
<path d="M34.3473 143.38L32.235 143.058C32.0717 143.034 31.9167 142.971 31.7833 142.874C31.6498 142.777 31.5418 142.649 31.4686 142.501L30.5219 140.569C30.4385 140.398 30.3089 140.254 30.1478 140.154C29.9867 140.053 29.8006 140 29.6107 140C29.4208 140 29.2347 140.053 29.0735 140.154C28.9124 140.254 28.7828 140.398 28.6994 140.569L27.7527 142.501C27.6795 142.649 27.5716 142.777 27.4381 142.874C27.3046 142.971 27.1496 143.034 26.9864 143.058L24.8708 143.38C24.683 143.407 24.5065 143.487 24.3614 143.609C24.2163 143.731 24.1084 143.892 24.0497 144.073C23.9911 144.253 23.9842 144.447 24.0297 144.631C24.0752 144.815 24.1714 144.983 24.3073 145.116L25.8368 146.606C25.9556 146.721 26.0445 146.864 26.0956 147.021C26.1467 147.178 26.1584 147.345 26.1299 147.508L25.7692 149.614C25.737 149.801 25.7579 149.994 25.8295 150.17C25.9011 150.346 26.0206 150.498 26.1745 150.61C26.3283 150.722 26.5104 150.788 26.7 150.801C26.8896 150.815 27.0791 150.775 27.2472 150.686L29.1373 149.691C29.2835 149.615 29.4459 149.575 29.6107 149.575C29.7755 149.575 29.9379 149.615 30.084 149.691L31.9742 150.686C32.1422 150.775 32.3318 150.815 32.5214 150.801C32.711 150.788 32.893 150.722 33.0469 150.61C33.2007 150.498 33.3202 150.346 33.3918 150.17C33.4635 149.994 33.4844 149.801 33.4521 149.614L33.0915 147.511C33.0631 147.349 33.0746 147.182 33.1251 147.025C33.1756 146.868 33.2635 146.725 33.3813 146.61L34.914 145.119C35.051 144.986 35.1479 144.818 35.1939 144.633C35.2398 144.448 35.2328 144.254 35.1737 144.072C35.1147 143.891 35.0059 143.73 34.8598 143.608C34.7136 143.485 34.5361 143.406 34.3473 143.38Z" fill="#F4D36F"/>
<path d="M81.8979 75.0761C82.0339 74.9436 82.13 74.7757 82.1756 74.5914C82.2211 74.4071 82.2141 74.2137 82.1555 74.0332C82.0969 73.8526 81.9889 73.692 81.8438 73.5696C81.6987 73.4472 81.5223 73.3678 81.3344 73.3405L79.2221 73.0346C79.0588 73.0106 78.9038 72.9474 78.7704 72.8504C78.6369 72.7533 78.5289 72.6254 78.4557 72.4775L77.5219 70.5681C77.438 70.3976 77.308 70.254 77.1467 70.1536C76.9853 70.0532 76.7991 70 76.6091 70C76.419 70 76.2328 70.0532 76.0715 70.1536C75.9101 70.254 75.7801 70.3976 75.6962 70.5681L74.7527 72.484C74.6795 72.6318 74.5716 72.7598 74.4381 72.8568C74.3046 72.9538 74.1496 73.017 73.9864 73.041L71.8708 73.3469C71.683 73.3743 71.5065 73.4537 71.3614 73.5761C71.2163 73.6985 71.1084 73.859 71.0497 74.0396C70.9911 74.2202 70.9842 74.4135 71.0297 74.5978C71.0752 74.7821 71.1714 74.95 71.3073 75.0825L72.8368 76.5734C72.9554 76.6884 73.0441 76.8307 73.0952 76.9878C73.1462 77.1449 73.1581 77.3122 73.1299 77.475L72.7692 79.5808C72.7374 79.7677 72.7585 79.9598 72.83 80.1353C72.9015 80.3109 73.0206 80.463 73.174 80.5745C73.3273 80.686 73.5087 80.7524 73.6978 80.7663C73.8868 80.7802 74.076 80.741 74.244 80.6531L76.1373 79.6581C76.2835 79.5819 76.4459 79.5421 76.6107 79.5421C76.7755 79.5421 76.9379 79.5819 77.084 79.6581L78.9742 80.6531C79.142 80.7423 79.3316 80.7825 79.5212 80.7692C79.7108 80.7559 79.8928 80.6896 80.0466 80.5778C80.2003 80.466 80.3196 80.3133 80.3907 80.137C80.4618 79.9607 80.482 79.768 80.4489 79.5808L80.0883 77.475C80.0614 77.3122 80.0739 77.1453 80.1249 76.9885C80.1759 76.8316 80.2638 76.6892 80.3813 76.5734L81.8979 75.0761Z" fill="#F4D36F"/>
<defs>
<clipPath id="clip0_1894_16841">
<rect width="182" height="186" fill="white" transform="translate(99)"/>
</clipPath>
</defs>
</svg>
