<svg width="24" height="24" viewBox="0 0 24 24" fill="none" xmlns="http://www.w3.org/2000/svg">
  <path d="M11.2013 5.61027V20.4243C11.2013 21.1805 10.4345 21.7023 9.7423 21.4148C7.7614 20.5841 5.30125 19.8599 3.55465 19.6256L3.2245 19.583C2.19145 19.4552 1.3501 18.5074 1.3501 17.4743V4.81153C1.3501 3.53353 2.38315 2.50049 3.66115 2.50049H3.7357C5.7379 2.67089 8.68795 3.60808 10.6369 4.66243C10.9883 4.85413 11.2013 5.20557 11.2013 5.61027Z" fill="#21B6F5"/>
  <path d="M20.339 2.50049H20.2751C20.0195 2.52179 19.7426 2.55374 19.4551 2.60699C18.1451 2.81999 16.5902 3.26728 15.1951 3.82108C14.5348 4.08733 13.9171 4.37488 13.3739 4.66243C13.0225 4.85413 12.7988 5.21622 12.7988 5.61027V20.4243C12.7988 21.1805 13.5656 21.7023 14.2579 21.4148C16.2388 20.5841 18.6989 19.8599 20.4455 19.6256L20.7757 19.583C21.8087 19.4552 22.6501 18.5074 22.6501 17.4743V4.81153C22.6501 3.53353 21.617 2.50049 20.339 2.50049Z" fill="#21B6F5"/>
  <path fill-rule="evenodd" clip-rule="evenodd" d="M18.7631 9.11994C19.1252 9.32229 19.4234 9.14124 19.4234 8.72589H19.434V5.45636C19.434 5.18542 19.4308 4.62588 19.4278 4.12841C19.4265 3.89342 19.4252 3.67228 19.4243 3.50195C18.168 3.72842 16.7177 4.1544 15.4082 4.6742C15.4082 4.7811 15.4082 4.87071 15.4083 4.98214C15.4083 5.10021 15.4083 5.24277 15.4083 5.45636V8.72589C15.4083 9.14124 15.7065 9.32229 16.0686 9.11994L17.1975 8.4916C17.3253 8.4277 17.517 8.4277 17.6342 8.4916L18.7631 9.11994Z" fill="white"/>
</svg>
