<svg width="24" height="24" viewBox="0 0 24 24" fill="none" xmlns="http://www.w3.org/2000/svg">
  <path fill-rule="evenodd" clip-rule="evenodd" d="M4.28796 10.0693H5.39675C6.76364 10.0693 7.87172 11.1774 7.87172 12.5443V19.7217C7.87172 21.0886 6.76364 22.1967 5.39675 22.1967H4.28796C2.92107 22.1967 1.81299 21.0886 1.81299 19.7217V12.5443C1.81299 11.1774 2.92107 10.0693 4.28796 10.0693Z" fill="#21B6F5"/>
  <path fill-rule="evenodd" clip-rule="evenodd" d="M11.4457 1.80273H12.5545C13.9214 1.80273 15.0294 2.91082 15.0294 4.27771V19.7216C15.0294 21.0884 13.9214 22.1965 12.5545 22.1965H11.4457C10.0788 22.1965 8.9707 21.0884 8.9707 19.7216V4.27771C8.9707 2.91081 10.0788 1.80273 11.4457 1.80273Z" fill="#21B6F5"/>
  <path fill-rule="evenodd" clip-rule="evenodd" d="M18.6034 5.28711H19.7122C21.0791 5.28711 22.1872 6.39519 22.1872 7.76208V19.7212C22.1872 21.0881 21.0791 22.1961 19.7122 22.1961H18.6034C17.2365 22.1961 16.1284 21.0881 16.1284 19.7212V7.76208C16.1284 6.39519 17.2365 5.28711 18.6034 5.28711Z" fill="#21B6F5"/>
</svg>
