<svg width="24" height="24" viewBox="0 0 24 24" fill="none" xmlns="http://www.w3.org/2000/svg">
  <path d="M15.6889 4.71688C17.5814 5.56079 19.1264 7.02715 20.0658 8.87101C21.0052 10.7149 21.2821 12.8246 20.8504 14.8477C20.4186 16.8708 19.3042 18.6848 17.6935 19.9867C16.0827 21.2886 14.073 21.9995 12.0002 22.0006C10.2272 22.0006 8.49327 21.4809 7.01362 20.5061C5.53398 19.5313 4.37379 18.1443 3.67709 16.5173C2.98039 14.8903 2.77785 13.095 3.09461 11.3541C3.41137 9.61327 4.23349 8.00359 5.45891 6.72489C6.30336 7.90159 7.41764 8.85963 8.70872 9.51902C8.73134 8.07228 9.07355 6.64833 9.71097 5.34873C10.3484 4.04912 11.2653 2.90587 12.3963 2.00049C13.2595 3.1558 14.3884 4.08707 15.6878 4.71579L15.6889 4.71688Z" stroke="#787878" stroke-width="1.3" stroke-linecap="round" stroke-linejoin="round"/>
  <path d="M12 18.716C13.0438 18.7156 14.0484 18.3193 14.8104 17.6074C15.5724 16.8955 16.0348 15.9211 16.1038 14.8818C16.1728 13.8424 15.8434 12.8157 15.1823 12.0096C14.5211 11.2036 13.5777 10.6784 12.5431 10.5405C11.4103 11.552 10.6639 12.924 10.431 14.423C9.58583 14.2166 8.79028 13.8444 8.09075 13.3281C7.88761 13.9448 7.83391 14.6008 7.93405 15.2422C8.03419 15.8837 8.28532 16.4923 8.66683 17.0181C9.04833 17.5439 9.54935 17.9719 10.1288 18.2671C10.7082 18.5622 11.3494 18.7161 12 18.716Z" stroke="#787878" stroke-width="1.3" stroke-linecap="round" stroke-linejoin="round"/>
</svg>
