<svg width="24" height="24" viewBox="0 0 24 24" fill="none" xmlns="http://www.w3.org/2000/svg">
  <path fill-rule="evenodd" clip-rule="evenodd" d="M13.0368 1.68444C12.9719 1.59748 12.8901 1.5245 12.7964 1.46984C12.7027 1.41518 12.5989 1.37996 12.4913 1.3663C12.3837 1.35263 12.2744 1.36079 12.17 1.39029C12.0656 1.4198 11.9682 1.47003 11.8837 1.53801C9.82005 3.1948 8.45898 5.57042 8.07335 8.18857C7.36599 7.67511 6.74612 7.05087 6.23763 6.33994C6.16854 6.24336 6.079 6.16322 5.9754 6.1052C5.87179 6.04719 5.75666 6.01274 5.63822 6.00431C5.51978 5.99588 5.40093 6.01367 5.29015 6.05643C5.17937 6.09918 5.07938 6.16584 4.99731 6.25165C3.57521 7.73898 2.66353 9.64042 2.39432 11.6805C2.12512 13.7206 2.51237 15.7935 3.49998 17.5988C4.48759 19.4041 6.02428 20.8481 7.88745 21.7217C9.75061 22.5953 11.8435 22.853 13.863 22.4576C15.8824 22.0622 17.7235 21.0342 19.1197 19.5225C20.5158 18.0107 21.3944 16.0938 21.6283 14.0493C21.8621 12.0049 21.439 9.93903 20.4203 8.1511C19.4016 6.36316 17.8401 4.94596 15.9621 4.10478C14.8076 3.54337 13.8044 2.71341 13.0368 1.68444ZM16.0374 14.5657C16.037 15.1497 15.9099 15.7267 15.6649 16.2568C15.4199 16.7869 15.0628 17.2576 14.6182 17.6363C14.1736 18.0151 13.6522 18.2928 13.0899 18.4505C12.5275 18.6081 11.9377 18.6419 11.361 18.5495C10.7844 18.4571 10.2346 18.2407 9.74973 17.9152C9.26483 17.5897 8.85631 17.1629 8.55236 16.6642C8.24841 16.1655 8.05626 15.6068 7.98918 15.0267C7.92209 14.4465 7.98166 13.8587 8.16379 13.3038C8.83993 13.8045 9.61728 14.1759 10.4603 14.3805C10.6891 12.9069 11.4215 11.5581 12.5329 10.5637C13.5028 10.6929 14.3928 11.1698 15.0374 11.9059C15.682 12.6421 16.0374 13.5872 16.0374 14.5657Z" fill="#21B6F5"/>
</svg>
