<svg width="24" height="24" viewBox="0 0 24 24" fill="none" xmlns="http://www.w3.org/2000/svg">
  <path d="M11.9951 10.9989C11.8983 10.9892 11.7822 10.9892 11.6757 10.9989C9.37249 10.9215 7.54346 9.03441 7.54346 6.71182C7.54346 4.34085 9.45959 2.41504 11.8402 2.41504C14.2112 2.41504 16.137 4.34085 16.137 6.71182C16.1273 9.03441 14.2983 10.9215 11.9951 10.9989Z" stroke="#787878" stroke-width="1.25807" stroke-linecap="round" stroke-linejoin="round"/>
  <path d="M7.15635 14.5694C4.81442 16.1372 4.81442 18.692 7.15635 20.2501C9.81764 22.0307 14.1822 22.0307 16.8435 20.2501C19.1854 18.6824 19.1854 16.1275 16.8435 14.5694C14.1918 12.7985 9.82732 12.7985 7.15635 14.5694Z" stroke="#787878" stroke-width="1.25807" stroke-linecap="round" stroke-linejoin="round"/>
</svg>
