<svg width="24" height="24" viewBox="0 0 24 24" fill="none" xmlns="http://www.w3.org/2000/svg">
  <path d="M12 1.79004C9.30931 1.79004 7.12183 3.96583 7.12183 6.64216C7.12183 9.26742 9.18607 11.3921 11.8768 11.4841C11.9589 11.4739 12.0411 11.4739 12.1027 11.4841C12.1233 11.4841 12.1335 11.4841 12.1541 11.4841C12.1643 11.4841 12.1643 11.4841 12.1746 11.4841C14.8037 11.3921 16.8679 9.26742 16.8782 6.64216C16.8782 3.96583 14.6907 1.79004 12 1.79004Z" fill="#21B6F5"/>
  <path d="M17.2171 14.2014C14.3518 12.3014 9.67902 12.3014 6.79319 14.2014C5.48891 15.0696 4.77002 16.2444 4.77002 17.5008C4.77002 18.7572 5.48891 19.9218 6.78292 20.7798C8.2207 21.74 10.1104 22.2201 12 22.2201C13.8897 22.2201 15.7793 21.74 17.2171 20.7798C18.5111 19.9115 19.23 18.747 19.23 17.4804C19.2198 16.2239 18.5111 15.0594 17.2171 14.2014Z" fill="#21B6F5"/>
</svg>
